<?xml version="1.0" encoding="UTF-8" standalone="no"?>
<!-- Created with Inkscape (http://www.inkscape.org/) -->

<svg
   version="1.1"
   id="svg2"
   xml:space="preserve"
   width="265.77734"
   height="256.22266"
   viewBox="0 0 265.77734 256.22266"
   sodipodi:docname="BFcant.svg"
   inkscape:version="1.1.2 (0a00cf5339, 2022-02-04)"
   xmlns:inkscape="http://www.inkscape.org/namespaces/inkscape"
   xmlns:sodipodi="http://sodipodi.sourceforge.net/DTD/sodipodi-0.dtd"
   xmlns="http://www.w3.org/2000/svg"
   xmlns:svg="http://www.w3.org/2000/svg"><defs
     id="defs6"><clipPath
       clipPathUnits="userSpaceOnUse"
       id="clipPath16"><path
         d="M 0,192.167 H 199.333 V 0 H 0 Z"
         id="path14" /></clipPath></defs><sodipodi:namedview
     id="namedview4"
     pagecolor="#ffffff"
     bordercolor="#666666"
     borderopacity="1.0"
     inkscape:pageshadow="2"
     inkscape:pageopacity="0.0"
     inkscape:pagecheckerboard="0"
     showgrid="false"
     inkscape:zoom="2.8373759"
     inkscape:cx="132.86925"
     inkscape:cy="128.28755"
     inkscape:window-width="1920"
     inkscape:window-height="1027"
     inkscape:window-x="0"
     inkscape:window-y="25"
     inkscape:window-maximized="1"
     inkscape:current-layer="g8" /><g
     id="g8"
     inkscape:groupmode="layer"
     inkscape:label="BFcant"
     transform="matrix(1.3333333,0,0,-1.3333333,0,256.22267)"><g
       id="g10"><g
         id="g12"
         clip-path="url(#clipPath16)"><g
           id="g18"
           transform="translate(50.7798,95.127)"><path
             d="m 0,0 c 0,-1.843 -1.492,-3.337 -3.334,-3.337 -1.84,0 -3.333,1.494 -3.333,3.337 0,1.842 1.493,3.336 3.333,3.336 C -1.492,3.336 0,1.842 0,0 Z"
             style="fill:none;stroke:#231f20;stroke-width:1;stroke-linecap:butt;stroke-linejoin:miter;stroke-miterlimit:10;stroke-dasharray:none;stroke-opacity:1"
             id="path20" /></g><g
           id="g22"
           transform="translate(175.2632,77.4478)"><path
             d="m 0,0 c 1.497,-0.848 2.026,-2.746 1.179,-4.242 -0.845,-1.495 -2.745,-2.024 -4.242,-1.177 -1.499,0.848 -2.026,2.747 -1.182,4.24 C -3.398,0.318 -1.499,0.848 0,0"
             style="fill:#c49a6c;fill-opacity:1;fill-rule:nonzero;stroke:none"
             id="path24" /></g><g
           id="g26"
           transform="translate(195.356,79.6607)"><path
             d="M 0,0 -42.471,-12.483 -43.25,-9.845 -0.777,2.639 Z"
             style="fill:#c49a6c;fill-opacity:1;fill-rule:nonzero;stroke:none"
             id="path28" /></g><g
           id="g30"
           transform="translate(168.7915,96.3589)"><path
             d="M 0,0 12.52,-42.464 9.879,-43.24 -2.641,-0.777 Z"
             style="fill:#c49a6c;fill-opacity:1;fill-rule:nonzero;stroke:none"
             id="path32" /></g><g
           id="g34"
           transform="translate(48.3706,100.5001)"><path
             d="M 0,0 14.892,-2.613"
             style="fill:none;stroke:#1c75bc;stroke-width:2;stroke-linecap:round;stroke-linejoin:round;stroke-miterlimit:10;stroke-dasharray:none;stroke-opacity:1"
             id="path36" /></g><g
           id="g38"
           transform="translate(176.2124,78.8951)"><path
             d="M 0,0 C 2.37,-1.341 3.207,-4.348 1.865,-6.715 0.528,-9.083 -2.478,-9.917 -4.849,-8.576 -7.22,-7.237 -8.055,-4.229 -6.717,-1.864 -5.378,0.505 -2.371,1.339 0,0 Z"
             style="fill:none;stroke:#1c75bc;stroke-width:2.269;stroke-linecap:butt;stroke-linejoin:miter;stroke-miterlimit:10;stroke-dasharray:none;stroke-opacity:1"
             id="path40" /></g><g
           id="g42"
           transform="translate(52.7036,95.2422)"><path
             d="m 0,0 c 0,-2.951 -2.391,-5.344 -5.339,-5.344 -2.948,0 -5.339,2.393 -5.339,5.344 0,2.951 2.391,5.344 5.339,5.344 C -2.391,5.344 0,2.951 0,0 Z"
             style="fill:none;stroke:#1c75bc;stroke-width:2;stroke-linecap:butt;stroke-linejoin:miter;stroke-miterlimit:10;stroke-dasharray:none;stroke-opacity:1"
             id="path44" /></g><g
           id="g46"
           transform="translate(63.2153,98.4635)"><path
             d="M 0,0 20.666,3.414 57.487,-10.333 110.354,-18.939 50.117,-10.33 36.141,-9.873 0,-1.087"
             style="fill:none;stroke:#1c75bc;stroke-width:1;stroke-linecap:round;stroke-linejoin:round;stroke-miterlimit:10;stroke-dasharray:none;stroke-opacity:1"
             id="path48" /></g><g
           id="g50"
           transform="translate(131.7085,107.8896)"><path
             d="m 0,0 -23.083,-1.049 -0.092,1.998 23.083,1.05 z"
             style="fill:#bcbec0;fill-opacity:1;fill-rule:nonzero;stroke:none"
             id="path52" /></g><g
           id="g54"
           transform="translate(122.148,93.7037)"><path
             d="M 0,0 -1.363,0.214 -0.628,4.89 0.735,4.675 Z"
             style="fill:none;stroke:#231f20;stroke-width:0.789;stroke-linecap:round;stroke-linejoin:round;stroke-miterlimit:10;stroke-dasharray:none;stroke-opacity:1"
             id="path56" /></g><g
           id="g58"
           transform="translate(122.3735,99.3648)"><path
             d="m 0,0 c 1.535,-0.241 1.497,-0.231 1.02,-3.239 -0.558,-3.478 -2,-10.311 -3.126,-10.134 -1.125,0.178 -0.235,8.636 0.053,10.478 C -1.611,-0.066 -1.856,0.293 0,0 Z"
             style="fill:none;stroke:#009444;stroke-width:0.663;stroke-linecap:round;stroke-linejoin:round;stroke-miterlimit:10;stroke-dasharray:none;stroke-opacity:1"
             id="path60" /></g><g
           id="g62"
           transform="translate(120.1216,80.839)"><path
             d="M 0,0 -1.363,0.215 -2.101,-4.46 -0.735,-4.674 Z"
             style="fill:none;stroke:#231f20;stroke-width:0.789;stroke-linecap:round;stroke-linejoin:round;stroke-miterlimit:10;stroke-dasharray:none;stroke-opacity:1"
             id="path64" /></g><g
           id="g66"
           transform="translate(118.5972,75.3824)"><path
             d="M 0,0 C 1.534,-0.242 1.496,-0.24 1.965,2.77 2.504,6.25 3.231,13.195 2.105,13.372 0.98,13.549 -0.772,5.228 -1.063,3.387 -1.513,0.559 -1.859,0.292 0,0 Z"
             style="fill:none;stroke:#009444;stroke-width:0.663;stroke-linecap:round;stroke-linejoin:round;stroke-miterlimit:10;stroke-dasharray:none;stroke-opacity:1"
             id="path68" /></g><g
           id="g70"
           transform="translate(114.6978,94.4317)"><path
             d="M 0,0 -1.365,0.215 -0.629,4.89 0.736,4.675 Z"
             style="fill:none;stroke:#231f20;stroke-width:0.789;stroke-linecap:round;stroke-linejoin:round;stroke-miterlimit:10;stroke-dasharray:none;stroke-opacity:1"
             id="path72" /></g><g
           id="g74"
           transform="translate(114.9214,100.0923)"><path
             d="M 0,0 C 1.535,-0.242 1.5,-0.23 1.019,-3.239 0.463,-6.716 -0.979,-13.549 -2.104,-13.372 -3.23,-13.194 -2.34,-4.736 -2.052,-2.895 -1.609,-0.066 -1.857,0.293 0,0 Z"
             style="fill:none;stroke:#009444;stroke-width:0.663;stroke-linecap:round;stroke-linejoin:round;stroke-miterlimit:10;stroke-dasharray:none;stroke-opacity:1"
             id="path76" /></g><g
           id="g78"
           transform="translate(112.6714,81.5675)"><path
             d="M 0,0 -1.365,0.215 -2.102,-4.46 -0.737,-4.675 Z"
             style="fill:none;stroke:#231f20;stroke-width:0.789;stroke-linecap:round;stroke-linejoin:round;stroke-miterlimit:10;stroke-dasharray:none;stroke-opacity:1"
             id="path80" /></g><g
           id="g82"
           transform="translate(111.146,76.1109)"><path
             d="M 0,0 C 1.534,-0.242 1.496,-0.241 1.963,2.769 2.503,6.249 3.231,13.194 2.105,13.372 0.98,13.549 -0.772,5.227 -1.064,3.386 -1.514,0.558 -1.857,0.293 0,0 Z"
             style="fill:none;stroke:#009444;stroke-width:0.663;stroke-linecap:round;stroke-linejoin:round;stroke-miterlimit:10;stroke-dasharray:none;stroke-opacity:1"
             id="path84" /></g><g
           id="g86"
           transform="translate(114.0689,99.3214)"><path
             d="M 0,0 -0.736,7.733"
             style="fill:none;stroke:#231f20;stroke-width:1;stroke-linecap:butt;stroke-linejoin:miter;stroke-miterlimit:10;stroke-dasharray:none;stroke-opacity:1"
             id="path88" /></g><g
           id="g90"
           transform="translate(122.3735,99.3648)"><path
             d="M 0,0 4.966,8.326"
             style="fill:none;stroke:#231f20;stroke-width:1;stroke-linecap:butt;stroke-linejoin:miter;stroke-miterlimit:10;stroke-dasharray:none;stroke-opacity:1"
             id="path92" /></g><g
           id="g94"
           transform="translate(120.7847,109.3956)"><path
             d="m 0,0 c 0,0 8.532,28.805 8.954,30.555 0.422,1.75 3.172,0.821 4.922,0.598 1.75,-0.223 1.531,-3.348 1.078,-4.723 C 14.501,25.055 1.589,0.04 1.589,0.04"
             style="fill:none;stroke:#231f20;stroke-width:1;stroke-linecap:butt;stroke-linejoin:miter;stroke-miterlimit:10;stroke-dasharray:none;stroke-opacity:1"
             id="path96" /></g><g
           id="g98"
           transform="translate(111.6206,76.8922)"><path
             d="M 0,0 -6.317,-41.333"
             style="fill:none;stroke:#231f20;stroke-width:1;stroke-linecap:butt;stroke-linejoin:miter;stroke-miterlimit:10;stroke-dasharray:none;stroke-opacity:1"
             id="path100" /></g><g
           id="g102"
           transform="translate(105.1607,30.9507)"><path
             d="M 0,0 C 0.5,-1.625 2.5,-2.75 3.25,-1 4,0.75 1.64,14.751 1.64,14.751"
             style="fill:none;stroke:#231f20;stroke-width:1;stroke-linecap:butt;stroke-linejoin:miter;stroke-miterlimit:10;stroke-dasharray:none;stroke-opacity:1"
             id="path104" /></g><g
           id="g106"
           transform="translate(116.3355,44.8419)"><path
             d="m 0,0 c 0,0 2.493,-14.199 1.839,-15.987 -0.653,-1.788 -2.712,-0.774 -3.299,0.822 -0.588,1.595 0.651,5.077 0.77,6.551 L 2.489,31.06"
             style="fill:none;stroke:#231f20;stroke-width:1;stroke-linecap:butt;stroke-linejoin:miter;stroke-miterlimit:10;stroke-dasharray:none;stroke-opacity:1"
             id="path108" /></g><g
           id="g110"
           transform="translate(75.5757,106.5699)"><path
             d="m 0,0 c 0,-0.991 -0.803,-1.794 -1.795,-1.794 -0.99,0 -1.794,0.803 -1.794,1.794 0,0.991 0.804,1.795 1.794,1.795 C -0.803,1.795 0,0.991 0,0 Z"
             style="fill:none;stroke:#231f20;stroke-width:1;stroke-linecap:butt;stroke-linejoin:miter;stroke-miterlimit:10;stroke-dasharray:none;stroke-opacity:1"
             id="path112" /></g><g
           id="g114"
           transform="translate(75.5757,84.461)"><path
             d="m 0,0 c 0,-0.991 -0.803,-1.794 -1.795,-1.794 -0.99,0 -1.794,0.803 -1.794,1.794 0,0.991 0.804,1.795 1.794,1.795 C -0.803,1.795 0,0.991 0,0 Z"
             style="fill:none;stroke:#231f20;stroke-width:1;stroke-linecap:butt;stroke-linejoin:miter;stroke-miterlimit:10;stroke-dasharray:none;stroke-opacity:1"
             id="path116" /></g><g
           id="g118"
           transform="translate(73.7808,104.7755)"><path
             d="M 0,0 V -18.03"
             style="fill:none;stroke:#231f20;stroke-width:1;stroke-linecap:butt;stroke-linejoin:miter;stroke-miterlimit:10;stroke-dasharray:none;stroke-opacity:1"
             id="path120" /></g><g
           id="g122"
           transform="translate(40.7183,156.6035)"><path
             d="m 0,0 c -2.993,-7.247 -3.057,-14.101 -0.14,-15.307 2.916,-1.207 7.708,3.69 10.702,10.937 2.994,7.247 3.056,14.1 0.14,15.308 C 7.785,12.145 2.993,7.247 0,0 Z"
             style="fill:none;stroke:#231f20;stroke-width:2;stroke-linecap:round;stroke-linejoin:round;stroke-miterlimit:10;stroke-dasharray:none;stroke-opacity:1"
             id="path124" /></g><g
           id="g126"
           transform="translate(39.6587,140.547)"><path
             d="m 0,0 c 0,0 -18.201,-40.317 -15.365,-54.763 2.957,-15.066 34.611,-6.005 45.826,-15.727 4.433,-3.841 22.495,-32.006 25.495,-35.674 4.039,-4.933 14.45,1.145 14.248,1.06"
             style="fill:none;stroke:#231f20;stroke-width:2;stroke-linecap:round;stroke-linejoin:round;stroke-miterlimit:10;stroke-dasharray:none;stroke-opacity:1"
             id="path128" /></g><g
           id="g130"
           transform="translate(35.9565,131.8253)"><path
             d="m 0,0 c 0,0 6.382,-13.68 11.178,-16.682 4.796,-3.003 30.025,-3.374 30.025,-6.757 v -3.633"
             style="fill:none;stroke:#231f20;stroke-width:2;stroke-linecap:round;stroke-linejoin:round;stroke-miterlimit:10;stroke-dasharray:none;stroke-opacity:1"
             id="path132" /></g><g
           id="g134"
           transform="translate(21.1392,86.3531)"><path
             d="m 0,0 c -0.118,-0.959 -0.991,-1.641 -1.951,-1.523 -0.959,0.117 -1.641,0.992 -1.524,1.95 0,0 0.18,6.783 0.366,8.555 0.186,1.772 1.74,8.566 1.74,8.566 0.118,0.959 0.992,1.641 1.951,1.523 0.959,-0.118 1.641,-0.991 1.523,-1.95 0,0 -1.615,-7.039 -1.755,-8.69 C 0.209,6.779 0,0 0,0"
             style="fill:#c49a6c;fill-opacity:1;fill-rule:nonzero;stroke:none"
             id="path136" /></g><g
           id="g138"
           transform="translate(19.8247,85.3824)"><path
             d="M 0,0 28.253,6.469"
             style="fill:none;stroke:#c49a6c;stroke-width:1;stroke-linecap:butt;stroke-linejoin:miter;stroke-miterlimit:10;stroke-dasharray:none;stroke-opacity:1"
             id="path140" /></g><g
           id="g142"
           transform="translate(47.5689,98.4752)"><path
             d="M 0,0 -25.848,6.553"
             style="fill:none;stroke:#c49a6c;stroke-width:1;stroke-linecap:butt;stroke-linejoin:miter;stroke-miterlimit:10;stroke-dasharray:none;stroke-opacity:1"
             id="path144" /></g><g
           id="g146"
           transform="translate(92.145,151.3257)"><path
             d="m 0,0 c 0,-0.82 -0.665,-1.484 -1.484,-1.484 -0.82,0 -1.485,0.664 -1.485,1.484 0,0.82 0.665,1.484 1.485,1.484 C -0.665,1.484 0,0.82 0,0"
             style="fill:#a97c50;fill-opacity:1;fill-rule:nonzero;stroke:none"
             id="path148" /></g><g
           id="g150"
           transform="translate(95.478,151.3257)"><path
             d="m 0,0 c 0,-0.82 -0.665,-1.484 -1.484,-1.484 -0.82,0 -1.485,0.664 -1.485,1.484 0,0.82 0.665,1.484 1.485,1.484 C -0.665,1.484 0,0.82 0,0"
             style="fill:#a97c50;fill-opacity:1;fill-rule:nonzero;stroke:none"
             id="path152" /></g><g
           id="g154"
           transform="translate(93.9937,148.3569)"><path
             d="m 0,0 c 0,-0.82 -0.665,-1.484 -1.484,-1.484 -0.82,0 -1.485,0.664 -1.485,1.484 0,0.82 0.665,1.484 1.485,1.484 C -0.665,1.484 0,0.82 0,0"
             style="fill:#a97c50;fill-opacity:1;fill-rule:nonzero;stroke:none"
             id="path156" /></g><g
           id="g158"
           transform="translate(97.6607,148.3569)"><path
             d="m 0,0 c 0,-0.82 -0.665,-1.484 -1.484,-1.484 -0.82,0 -1.485,0.664 -1.485,1.484 0,0.82 0.665,1.484 1.485,1.484 C -0.665,1.484 0,0.82 0,0"
             style="fill:#a97c50;fill-opacity:1;fill-rule:nonzero;stroke:none"
             id="path160" /></g><g
           id="g162"
           transform="translate(96.1763,145.3882)"><path
             d="m 0,0 c 0,-0.82 -0.665,-1.484 -1.484,-1.484 -0.82,0 -1.485,0.664 -1.485,1.484 0,0.82 0.665,1.484 1.485,1.484 C -0.665,1.484 0,0.82 0,0"
             style="fill:#a97c50;fill-opacity:1;fill-rule:nonzero;stroke:none"
             id="path164" /></g><g
           id="g166"
           transform="translate(92.5093,144.8882)"><path
             d="m 0,0 c 0,-0.82 -0.665,-1.484 -1.484,-1.484 -0.82,0 -1.485,0.664 -1.485,1.484 0,0.82 0.665,1.484 1.485,1.484 C -0.665,1.484 0,0.82 0,0"
             style="fill:#a97c50;fill-opacity:1;fill-rule:nonzero;stroke:none"
             id="path168" /></g><g
           id="g170"
           transform="translate(88.7593,145.3882)"><path
             d="m 0,0 c 0,-0.82 -0.665,-1.484 -1.484,-1.484 -0.82,0 -1.485,0.664 -1.485,1.484 0,0.82 0.665,1.484 1.485,1.484 C -0.665,1.484 0,0.82 0,0"
             style="fill:#a97c50;fill-opacity:1;fill-rule:nonzero;stroke:none"
             id="path172" /></g><g
           id="g174"
           transform="translate(87.6919,149.8414)"><path
             d="m 0,0 c 0,-0.82 -0.665,-1.484 -1.484,-1.484 -0.82,0 -1.485,0.664 -1.485,1.484 0,0.82 0.665,1.484 1.485,1.484 C -0.665,1.484 0,0.82 0,0"
             style="fill:#a97c50;fill-opacity:1;fill-rule:nonzero;stroke:none"
             id="path176" /></g><g
           id="g178"
           transform="translate(87.6353,149.8414)"><path
             d="m 0,0 c 0,-0.82 -0.665,-1.484 -1.484,-1.484 -0.82,0 -1.485,0.664 -1.485,1.484 0,0.82 0.665,1.484 1.485,1.484 C -0.665,1.484 0,0.82 0,0"
             style="fill:#a97c50;fill-opacity:1;fill-rule:nonzero;stroke:none"
             id="path180" /></g><g
           id="g182"
           transform="translate(87.5786,149.8414)"><path
             d="m 0,0 c 0,-0.82 -0.665,-1.484 -1.484,-1.484 -0.82,0 -1.485,0.664 -1.485,1.484 0,0.82 0.665,1.484 1.485,1.484 C -0.665,1.484 0,0.82 0,0"
             style="fill:#a97c50;fill-opacity:1;fill-rule:nonzero;stroke:none"
             id="path184" /></g><g
           id="g186"
           transform="translate(87.522,149.8414)"><path
             d="m 0,0 c 0,-0.82 -0.665,-1.484 -1.484,-1.484 -0.82,0 -1.485,0.664 -1.485,1.484 0,0.82 0.665,1.484 1.485,1.484 C -0.665,1.484 0,0.82 0,0"
             style="fill:#a97c50;fill-opacity:1;fill-rule:nonzero;stroke:none"
             id="path188" /></g><g
           id="g190"
           transform="translate(87.4653,149.8414)"><path
             d="m 0,0 c 0,-0.82 -0.665,-1.484 -1.484,-1.484 -0.82,0 -1.485,0.664 -1.485,1.484 0,0.82 0.665,1.484 1.485,1.484 C -0.665,1.484 0,0.82 0,0"
             style="fill:#a97c50;fill-opacity:1;fill-rule:nonzero;stroke:none"
             id="path192" /></g><g
           id="g194"
           transform="translate(87.4087,149.8414)"><path
             d="m 0,0 c 0,-0.82 -0.665,-1.484 -1.484,-1.484 -0.82,0 -1.485,0.664 -1.485,1.484 0,0.82 0.665,1.484 1.485,1.484 C -0.665,1.484 0,0.82 0,0"
             style="fill:#a97c50;fill-opacity:1;fill-rule:nonzero;stroke:none"
             id="path196" /></g><g
           id="g198"
           transform="translate(87.3521,149.8414)"><path
             d="m 0,0 c 0,-0.82 -0.665,-1.484 -1.484,-1.484 -0.82,0 -1.485,0.664 -1.485,1.484 0,0.82 0.665,1.484 1.485,1.484 C -0.665,1.484 0,0.82 0,0"
             style="fill:#a97c50;fill-opacity:1;fill-rule:nonzero;stroke:none"
             id="path200" /></g><g
           id="g202"
           transform="translate(90.6607,148.3569)"><path
             d="m 0,0 c 0,-0.82 -0.665,-1.484 -1.484,-1.484 -0.82,0 -1.485,0.664 -1.485,1.484 0,0.82 0.665,1.484 1.485,1.484 C -0.665,1.484 0,0.82 0,0"
             style="fill:#a97c50;fill-opacity:1;fill-rule:nonzero;stroke:none"
             id="path204" /></g><g
           id="g206"
           transform="translate(75.5327,173.1006)"><path
             d="M 0,0 C 0,0 5.753,-31.15 15.128,-30.9 24.503,-30.65 32.003,0 32.003,0"
             style="fill:none;stroke:#231f20;stroke-width:1;stroke-linecap:butt;stroke-linejoin:miter;stroke-miterlimit:10;stroke-dasharray:none;stroke-opacity:1"
             id="path208" /></g><g
           id="g210"
           transform="translate(83.8552,148.7897)"><path
             d="M 0,0 -0.761,-46.099"
             style="fill:none;stroke:#009444;stroke-width:1;stroke-linecap:butt;stroke-linejoin:miter;stroke-miterlimit:10;stroke-dasharray:none;stroke-opacity:1"
             id="path212" /></g><g
           id="g214"
           transform="translate(83.314,100.4483)"><path
             d="M 0,0 C 0.635,-0.25 2.582,0.632 2.608,2.003 2.635,3.375 14.097,47.627 14.097,47.627"
             style="fill:none;stroke:#009444;stroke-width:1;stroke-linecap:butt;stroke-linejoin:miter;stroke-miterlimit:10;stroke-dasharray:none;stroke-opacity:1"
             id="path216" /></g><g
           id="g218"
           transform="translate(83.8552,149.1222)"><path
             d="M 0,0 14.299,-59.026"
             style="fill:none;stroke:#009444;stroke-width:1;stroke-linecap:butt;stroke-linejoin:miter;stroke-miterlimit:10;stroke-dasharray:none;stroke-opacity:1"
             id="path220" /></g><g
           id="g222"
           transform="translate(98.6532,87.6021)"><path
             d="m 0,0 c 0,0 0.166,-1.164 1.33,-1.164 2.168,0 -2.495,61.919 -2.495,61.919"
             style="fill:none;stroke:#009444;stroke-width:1;stroke-linecap:butt;stroke-linejoin:miter;stroke-miterlimit:10;stroke-dasharray:none;stroke-opacity:1"
             id="path224" /></g><path
           d="M 179.315,57.647 H 6.879 v 10.878 h 172.436 z"
           style="fill:#939598;fill-opacity:1;fill-rule:nonzero;stroke:none"
           id="path226" /><path
           d="m 138.211,13.884 h -10.872 v 164.252 h 10.872 z"
           style="fill:#939598;fill-opacity:1;fill-rule:nonzero;stroke:none"
           id="path228" /><path
           d="M 51.998,13.884 H 41.136 v 43.763 h 10.862 z"
           style="fill:#939598;fill-opacity:1;fill-rule:nonzero;stroke:none"
           id="path230" /><path
           d="M 41.135,69.703 H 13.219 v 5.035 h 27.916 z"
           style="fill:#939598;fill-opacity:1;fill-rule:nonzero;stroke:none"
           id="path232" /><path
           d="M 136.531,173.101 H 75.533 v 5.035 h 60.998 z"
           style="fill:#939598;fill-opacity:1;fill-rule:nonzero;stroke:none"
           id="path234" /><g
           id="g236"
           transform="translate(135.7388,137.5475)"><path
             d="m 0,0 c 0,-1.657 -1.343,-3 -3,-3 -1.657,0 -3,1.343 -3,3 0,1.657 1.343,3 3,3 1.657,0 3,-1.343 3,-3 z"
             style="fill:none;stroke:#231f20;stroke-width:1;stroke-linecap:butt;stroke-linejoin:miter;stroke-miterlimit:10;stroke-dasharray:2, 1;stroke-dashoffset:0;stroke-opacity:1"
             id="path238" /></g><g
           id="g240"
           transform="translate(93.8892,94.8282)"><path
             d="m 0,0 c 0,-1.657 -1.343,-3 -3,-3 -1.657,0 -3,1.343 -3,3 0,1.657 1.343,3 3,3 1.657,0 3,-1.343 3,-3 z"
             style="fill:none;stroke:#231f20;stroke-width:1;stroke-linecap:butt;stroke-linejoin:miter;stroke-miterlimit:10;stroke-dasharray:none;stroke-opacity:1"
             id="path242" /></g></g></g></g></svg>
