<?xml version="1.0" encoding="UTF-8" standalone="no"?>
<!-- Created with Inkscape (http://www.inkscape.org/) -->

<svg
   version="1.1"
   id="svg2"
   xml:space="preserve"
   width="281.33334"
   height="227.33333"
   viewBox="0 0 281.33334 227.33333"
   sodipodi:docname="BFSRH.svg"
   inkscape:version="1.1.2 (0a00cf5339, 2022-02-04)"
   xmlns:inkscape="http://www.inkscape.org/namespaces/inkscape"
   xmlns:sodipodi="http://sodipodi.sourceforge.net/DTD/sodipodi-0.dtd"
   xmlns="http://www.w3.org/2000/svg"
   xmlns:svg="http://www.w3.org/2000/svg"><defs
     id="defs6"><clipPath
       clipPathUnits="userSpaceOnUse"
       id="clipPath16"><path
         d="M 0,170.5 H 211 V 0 H 0 Z"
         id="path14" /></clipPath></defs><sodipodi:namedview
     id="namedview4"
     pagecolor="#ffffff"
     bordercolor="#666666"
     borderopacity="1.0"
     inkscape:pageshadow="2"
     inkscape:pageopacity="0.0"
     inkscape:pagecheckerboard="0"
     showgrid="false"
     inkscape:zoom="3.1979473"
     inkscape:cx="140.71527"
     inkscape:cy="113.51031"
     inkscape:window-width="1920"
     inkscape:window-height="1027"
     inkscape:window-x="0"
     inkscape:window-y="25"
     inkscape:window-maximized="1"
     inkscape:current-layer="g8" /><g
     id="g8"
     inkscape:groupmode="layer"
     inkscape:label="BFSRH"
     transform="matrix(1.3333333,0,0,-1.3333333,0,227.33333)"><g
       id="g10"><g
         id="g12"
         clip-path="url(#clipPath16)"><g
           id="g18"
           transform="translate(52.6058,88.2745)"><path
             d="m 0,0 c 0,-1.841 -1.493,-3.334 -3.334,-3.334 -1.84,0 -3.333,1.493 -3.333,3.334 0,1.841 1.493,3.333 3.333,3.333 C -1.493,3.333 0,1.841 0,0 Z"
             style="fill:none;stroke:#231f20;stroke-width:1;stroke-linecap:butt;stroke-linejoin:miter;stroke-miterlimit:10;stroke-dasharray:none;stroke-opacity:1"
             id="path20" /></g><g
           id="g22"
           transform="translate(190.4002,139.644)"><path
             d="m 0,0 c 0,-1.719 -1.395,-3.112 -3.113,-3.112 -1.717,0 -3.112,1.393 -3.112,3.112 0,1.72 1.395,3.112 3.112,3.112 C -1.395,3.112 0,1.72 0,0"
             style="fill:#c49a6c;fill-opacity:1;fill-rule:nonzero;stroke:none"
             id="path24" /></g><g
           id="g26"
           transform="translate(202.2156,123.2563)"><path
             d="m 0,0 -31.77,30.802 1.915,1.974 L 1.914,1.975 Z"
             style="fill:#c49a6c;fill-opacity:1;fill-rule:nonzero;stroke:none"
             id="path28" /></g><g
           id="g30"
           transform="translate(203.6766,154.5724)"><path
             d="m 0,0 -30.803,-31.77 -1.974,1.915 30.802,31.769 z"
             style="fill:#c49a6c;fill-opacity:1;fill-rule:nonzero;stroke:none"
             id="path32" /></g><g
           id="g34"
           transform="translate(117.5906,130.2187)"><path
             d="m 0,0 c 0,-0.991 -0.805,-1.794 -1.795,-1.794 -0.991,0 -1.795,0.803 -1.795,1.794 0,0.991 0.804,1.795 1.795,1.795 C -0.805,1.795 0,0.991 0,0 Z"
             style="fill:none;stroke:#231f20;stroke-width:1;stroke-linecap:butt;stroke-linejoin:miter;stroke-miterlimit:10;stroke-dasharray:none;stroke-opacity:1"
             id="path36" /></g><g
           id="g38"
           transform="translate(117.5906,146.7491)"><path
             d="M 0,0 -1.795,-14.735"
             style="fill:none;stroke:#231f20;stroke-width:1;stroke-linecap:butt;stroke-linejoin:miter;stroke-miterlimit:10;stroke-dasharray:none;stroke-opacity:1"
             id="path40" /></g><g
           id="g42"
           transform="translate(73.5643,92.6837)"><path
             d="M 0,0 C -0.166,0.805 13.005,5.666 13.772,5.501 14.799,5.281 15.715,0.307 15.148,-0.202 14.581,-0.71 0.165,-0.805 0,0"
             style="fill:#58595b;fill-opacity:1;fill-rule:nonzero;stroke:none"
             id="path44" /></g><g
           id="g46"
           transform="translate(50.4231,93.4736)"><path
             d="M 0,0 16.059,-1.824"
             style="fill:none;stroke:#1c75bc;stroke-width:2;stroke-linecap:round;stroke-linejoin:round;stroke-miterlimit:10;stroke-dasharray:none;stroke-opacity:1"
             id="path48" /></g><g
           id="g50"
           transform="translate(192.1268,139.5303)"><path
             d="m 0,0 c 0,-2.72 -2.206,-4.926 -4.927,-4.926 -2.718,0 -4.925,2.206 -4.925,4.926 0,2.72 2.207,4.926 4.925,4.926 C -2.206,4.926 0,2.72 0,0 Z"
             style="fill:none;stroke:#1c75bc;stroke-width:2.269;stroke-linecap:butt;stroke-linejoin:miter;stroke-miterlimit:10;stroke-dasharray:none;stroke-opacity:1"
             id="path52" /></g><g
           id="g54"
           transform="translate(66.4822,91.6499)"><path
             d="m 0,0 c 0,0 57.865,-3.751 60.612,-3.484 7.267,0.707 56.391,55.44 56.391,55.44"
             style="fill:none;stroke:#1c75bc;stroke-width:1;stroke-linecap:round;stroke-linejoin:round;stroke-miterlimit:10;stroke-dasharray:none;stroke-opacity:1"
             id="path56" /></g><g
           id="g58"
           transform="translate(54.5296,88.3896)"><path
             d="m 0,0 c 0,-2.949 -2.39,-5.339 -5.339,-5.339 -2.949,0 -5.339,2.39 -5.339,5.339 0,2.949 2.39,5.339 5.339,5.339 C -2.39,5.339 0,2.949 0,0 Z"
             style="fill:none;stroke:#1c75bc;stroke-width:2;stroke-linecap:butt;stroke-linejoin:miter;stroke-miterlimit:10;stroke-dasharray:none;stroke-opacity:1"
             id="path60" /></g><g
           id="g62"
           transform="translate(67.2142,91.608)"><path
             d="m 0,0 48.479,23.626 c 0,0 5.28,-24.233 7.55,-26.358 2.268,-2.125 52.262,-11.25 54.14,-11.125 1.878,0.125 3.128,0.25 4.003,4 0.875,3.75 1.723,61.437 1.723,61.437"
             style="fill:none;stroke:#1c75bc;stroke-width:1;stroke-linecap:round;stroke-linejoin:round;stroke-miterlimit:10;stroke-dasharray:none;stroke-opacity:1"
             id="path64" /></g><g
           id="g66"
           transform="translate(115.22,113.3432)"><path
             d="m 0,0 c -0.418,-0.644 -1.25,-0.166 -1.417,0.584 -0.166,0.75 -1.218,15.253 -1.134,16.292 0.083,1.038 -0.021,3.2 3.126,3.205 2.292,0.003 2.959,-1.41 2.959,-3.205 0,-1.795 -2.219,-14.34 -2.219,-14.34"
             style="fill:none;stroke:#009444;stroke-width:1;stroke-linecap:butt;stroke-linejoin:miter;stroke-miterlimit:10;stroke-dasharray:none;stroke-opacity:1"
             id="path68" /></g><g
           id="g70"
           transform="translate(154.909,132.356)"><path
             d="m 0,0 -18.948,9.657 -19.618,5.058 2.489,6.086 19.599,-5.051 18.965,-9.663 z"
             style="fill:#bcbec0;fill-opacity:1;fill-rule:nonzero;stroke:none"
             id="path72" /></g><g
           id="g74"
           transform="translate(142.6854,115.9214)"><path
             d="m 0,0 -9.672,-13.425 -5.243,-14.694 -5.811,3.081 5.238,14.681 9.678,13.438 z"
             style="fill:#bcbec0;fill-opacity:1;fill-rule:nonzero;stroke:none"
             id="path76" /></g><g
           id="g78"
           transform="translate(117.0018,21.5372)"><path
             d="m 0,0 c 0,-1.655 -1.343,-2.998 -3.001,-2.998 -1.657,0 -3,1.343 -3,2.998 0,1.655 1.343,2.998 3,2.998 C -1.343,2.998 0,1.655 0,0 Z"
             style="fill:none;stroke:#231f20;stroke-width:1;stroke-linecap:butt;stroke-linejoin:miter;stroke-miterlimit:10;stroke-dasharray:none;stroke-opacity:1"
             id="path80" /></g><g
           id="g82"
           transform="translate(125.4197,89.0493)"><path
             d="M 0,0 -11.418,-64.515"
             style="fill:none;stroke:#231f20;stroke-width:1;stroke-linecap:round;stroke-linejoin:round;stroke-miterlimit:10;stroke-dasharray:none;stroke-opacity:1"
             id="path84" /></g><g
           id="g86"
           transform="translate(154.0115,132.356)"><path
             d="M 0,0 -13.736,-15.156"
             style="fill:none;stroke:#231f20;stroke-width:1;stroke-linecap:round;stroke-linejoin:round;stroke-miterlimit:10;stroke-dasharray:none;stroke-opacity:1"
             id="path88" /></g><g
           id="g90"
           transform="translate(96.1238,108.1461)"><path
             d="m 0,0 c 0,-0.991 -0.804,-1.795 -1.795,-1.795 -0.991,0 -1.794,0.804 -1.794,1.795 0,0.991 0.803,1.795 1.794,1.795 C -0.804,1.795 0,0.991 0,0 Z"
             style="fill:none;stroke:#231f20;stroke-width:1;stroke-linecap:butt;stroke-linejoin:miter;stroke-miterlimit:10;stroke-dasharray:none;stroke-opacity:1"
             id="path92" /></g><g
           id="g94"
           transform="translate(96.1238,86.0372)"><path
             d="m 0,0 c 0,-0.991 -0.804,-1.794 -1.795,-1.794 -0.991,0 -1.794,0.803 -1.794,1.794 0,0.991 0.803,1.795 1.794,1.795 C -0.804,1.795 0,0.991 0,0 Z"
             style="fill:none;stroke:#231f20;stroke-width:1;stroke-linecap:butt;stroke-linejoin:miter;stroke-miterlimit:10;stroke-dasharray:none;stroke-opacity:1"
             id="path96" /></g><g
           id="g98"
           transform="translate(94.3289,106.3515)"><path
             d="M 0,0 V -18.03"
             style="fill:none;stroke:#231f20;stroke-width:1;stroke-linecap:butt;stroke-linejoin:miter;stroke-miterlimit:10;stroke-dasharray:none;stroke-opacity:1"
             id="path100" /></g><g
           id="g102"
           transform="translate(42.5442,149.6987)"><path
             d="m 0,0 c -2.994,-7.241 -3.057,-14.088 -0.14,-15.294 2.917,-1.206 7.708,3.687 10.702,10.927 2.994,7.242 3.057,14.089 0.14,15.295 C 7.785,12.133 2.994,7.241 0,0 Z"
             style="fill:none;stroke:#231f20;stroke-width:2;stroke-linecap:round;stroke-linejoin:round;stroke-miterlimit:10;stroke-dasharray:none;stroke-opacity:1"
             id="path104" /></g><g
           id="g106"
           transform="translate(41.4842,133.6553)"><path
             d="m 0,0 c 0,0 -18.2,-40.283 -15.365,-54.715 2.957,-15.054 34.611,-6 45.827,-15.714 4.432,-3.838 29.558,-31.663 32.558,-35.327 3,-3.663 14.249,1.059 14.249,1.059"
             style="fill:none;stroke:#231f20;stroke-width:2;stroke-linecap:round;stroke-linejoin:round;stroke-miterlimit:10;stroke-dasharray:none;stroke-opacity:1"
             id="path108" /></g><g
           id="g110"
           transform="translate(37.7825,124.9409)"><path
             d="m 0,0 c 0,0 6.382,-13.667 11.178,-16.667 4.796,-3 41.23,-6.323 41.23,-9.704 V -30"
             style="fill:none;stroke:#231f20;stroke-width:2;stroke-linecap:round;stroke-linejoin:round;stroke-miterlimit:10;stroke-dasharray:none;stroke-opacity:1"
             id="path112" /></g><g
           id="g114"
           transform="translate(22.8426,79.4859)"><path
             d="m 0,0 c -0.118,-0.959 -0.991,-1.641 -1.95,-1.523 -0.959,0.117 -1.641,0.992 -1.524,1.95 0,0 0.179,6.783 0.366,8.555 0.186,1.772 1.74,8.566 1.74,8.566 0.118,0.959 0.991,1.641 1.951,1.523 0.958,-0.118 1.641,-0.991 1.522,-1.95 0,0 -1.615,-7.038 -1.755,-8.69 C 0.21,6.779 0,0 0,0"
             style="fill:#c49a6c;fill-opacity:1;fill-rule:nonzero;stroke:none"
             id="path116" /></g><g
           id="g118"
           transform="translate(21.5281,78.5152)"><path
             d="M 0,0 28.253,6.469"
             style="fill:none;stroke:#c49a6c;stroke-width:1;stroke-linecap:butt;stroke-linejoin:miter;stroke-miterlimit:10;stroke-dasharray:none;stroke-opacity:1"
             id="path120" /></g><g
           id="g122"
           transform="translate(49.2723,91.608)"><path
             d="M 0,0 -25.847,6.553"
             style="fill:none;stroke:#c49a6c;stroke-width:1;stroke-linecap:butt;stroke-linejoin:miter;stroke-miterlimit:10;stroke-dasharray:none;stroke-opacity:1"
             id="path124" /></g><path
           d="M 164.617,50.826 H 9.273 v 10.869 h 155.344 z"
           style="fill:#939598;fill-opacity:1;fill-rule:nonzero;stroke:none"
           id="path126" /><path
           d="M 145.711,7.088 H 134.839 V 152.39 h 10.872 z"
           style="fill:#939598;fill-opacity:1;fill-rule:nonzero;stroke:none"
           id="path128" /><path
           d="M 53.824,7.088 H 42.961 v 43.738 h 10.863 z"
           style="fill:#939598;fill-opacity:1;fill-rule:nonzero;stroke:none"
           id="path130" /><path
           d="M 42.961,62.873 H 15.046 v 5.031 h 27.915 z"
           style="fill:#939598;fill-opacity:1;fill-rule:nonzero;stroke:none"
           id="path132" /><path
           d="m 182.262,76.876 h -36.551 v 9.75 h 36.551 z"
           style="fill:#939598;fill-opacity:1;fill-rule:nonzero;stroke:none"
           id="path134" /><g
           id="g136"
           transform="translate(189.9315,136.8437)"><path
             d="m 0,0 0.613,-1.07 -45.297,-25.4 -4.973,8.796 45.298,25.4 0.697,-1.15 -1.25,-0.667 C -6.415,5.038 -7.052,2.6 -6.057,0.884 c 0.998,-1.717 3.362,-2.458 4.865,-1.586 z"
             style="fill:#939598;fill-opacity:1;fill-rule:nonzero;stroke:none"
             id="path138" /></g><g
           id="g140"
           transform="translate(180.3836,81.8208)"><path
             d="m 0,0 c 0,-1.657 -1.343,-3 -3,-3 -1.657,0 -3,1.343 -3,3 0,1.657 1.343,3 3,3 1.657,0 3,-1.343 3,-3 z"
             style="fill:none;stroke:#231f20;stroke-width:1;stroke-linecap:butt;stroke-linejoin:miter;stroke-miterlimit:10;stroke-dasharray:2, 1;stroke-dashoffset:0;stroke-opacity:1"
             id="path142" /></g><g
           id="g144"
           transform="translate(129.2449,92.6851)"><path
             d="m 0,0 c 0,-1.657 -1.343,-3 -3,-3 -1.658,0 -3.002,1.343 -3.002,3 0,1.657 1.344,3 3.002,3 1.657,0 3,-1.343 3,-3 z"
             style="fill:none;stroke:#231f20;stroke-width:1;stroke-linecap:butt;stroke-linejoin:miter;stroke-miterlimit:10;stroke-dasharray:2, 1;stroke-dashoffset:0;stroke-opacity:1"
             id="path146" /></g></g></g></g></svg>
