<?xml version="1.0" encoding="UTF-8" standalone="no"?>
<!-- Created with Inkscape (http://www.inkscape.org/) -->

<svg
   version="1.1"
   id="svg2"
   xml:space="preserve"
   width="299.11066"
   height="227.33333"
   viewBox="0 0 299.11066 227.33333"
   sodipodi:docname="BFYRH.svg"
   inkscape:version="1.1.2 (0a00cf5339, 2022-02-04)"
   xmlns:inkscape="http://www.inkscape.org/namespaces/inkscape"
   xmlns:sodipodi="http://sodipodi.sourceforge.net/DTD/sodipodi-0.dtd"
   xmlns="http://www.w3.org/2000/svg"
   xmlns:svg="http://www.w3.org/2000/svg"><defs
     id="defs6"><clipPath
       clipPathUnits="userSpaceOnUse"
       id="clipPath16"><path
         d="M 0,170.5 H 224.333 V 0 H 0 Z"
         id="path14" /></clipPath></defs><sodipodi:namedview
     id="namedview4"
     pagecolor="#ffffff"
     bordercolor="#666666"
     borderopacity="1.0"
     inkscape:pageshadow="2"
     inkscape:pageopacity="0.0"
     inkscape:pagecheckerboard="0"
     showgrid="false"
     inkscape:zoom="3.1979473"
     inkscape:cx="149.47088"
     inkscape:cy="113.51031"
     inkscape:window-width="1920"
     inkscape:window-height="1027"
     inkscape:window-x="0"
     inkscape:window-y="25"
     inkscape:window-maximized="1"
     inkscape:current-layer="g8" /><g
     id="g8"
     inkscape:groupmode="layer"
     inkscape:label="BFYRH"
     transform="matrix(1.3333333,0,0,-1.3333333,0,227.33333)"><g
       id="g10"><g
         id="g12"
         clip-path="url(#clipPath16)"><g
           id="g18"
           transform="translate(196.5285,66.1456)"><path
             d="m 0,0 c 0,-1.085 -0.881,-1.965 -1.966,-1.965 h -6.237 c -1.086,0 -1.966,0.88 -1.966,1.965 v 31.196 c 0,1.086 0.88,1.966 1.966,1.966 h 6.237 C -0.881,33.162 0,32.282 0,31.196 Z"
             style="fill:#c49a6c;fill-opacity:1;fill-rule:nonzero;stroke:none"
             id="path20" /></g><g
           id="g22"
           transform="translate(220.2229,124.485)"><path
             d="M 0,0 -120.214,16.821 -119.83,20.3 0.384,3.479 Z"
             style="fill:#d1d3d4;fill-opacity:1;fill-rule:nonzero;stroke:none"
             id="path24" /></g><g
           id="g26"
           transform="translate(51.343,89.2286)"><path
             d="m 0,0 c 0,-1.841 -1.493,-3.334 -3.333,-3.334 -1.841,0 -3.334,1.493 -3.334,3.334 0,1.841 1.493,3.333 3.334,3.333 C -1.493,3.333 0,1.841 0,0 Z"
             style="fill:none;stroke:#231f20;stroke-width:1;stroke-linecap:butt;stroke-linejoin:miter;stroke-miterlimit:10;stroke-dasharray:none;stroke-opacity:1"
             id="path28" /></g><g
           id="g30"
           transform="translate(194.1906,73.3208)"><path
             d="M 0,0 C 0,-0.586 -0.477,-1.061 -1.062,-1.061 H -4.43 c -0.588,0 -1.062,0.475 -1.062,1.061 v 16.846 c 0,0.586 0.474,1.062 1.062,1.062 h 3.368 C -0.477,17.908 0,17.432 0,16.846 Z"
             style="fill:none;stroke:#231f20;stroke-width:0.9;stroke-linecap:butt;stroke-linejoin:miter;stroke-miterlimit:10;stroke-dasharray:1.962, 0.981;stroke-dashoffset:0;stroke-opacity:1"
             id="path32" /></g><g
           id="g34"
           transform="translate(58.3557,93.589)"><path
             d="m 0,0 c 3.195,0.375 84.128,2.476 84.128,2.476 l 48.96,-2.337 -48.871,-13.75"
             style="fill:none;stroke:#1c75bc;stroke-width:1;stroke-linecap:round;stroke-linejoin:round;stroke-miterlimit:10;stroke-dasharray:none;stroke-opacity:1"
             id="path36" /></g><g
           id="g38"
           transform="translate(102.2336,122.69)"><path
             d="m 0,0 c 0,-0.991 -0.804,-1.794 -1.795,-1.794 -0.991,0 -1.794,0.803 -1.794,1.794 0,0.991 0.803,1.795 1.794,1.795 C -0.804,1.795 0,0.991 0,0 Z"
             style="fill:none;stroke:#231f20;stroke-width:1;stroke-linecap:butt;stroke-linejoin:miter;stroke-miterlimit:10;stroke-dasharray:none;stroke-opacity:1"
             id="path40" /></g><g
           id="g42"
           transform="translate(100.469,141.2549)"><path
             d="M 0,0 -0.03,-16.77"
             style="fill:none;stroke:#231f20;stroke-width:1;stroke-linecap:butt;stroke-linejoin:miter;stroke-miterlimit:10;stroke-dasharray:none;stroke-opacity:1"
             id="path44" /></g><g
           id="g46"
           transform="translate(148.9445,88.2032)"><path
             d="m 0,0 c 0,-3.567 -2.893,-6.46 -6.46,-6.46 -3.57,0 -6.465,2.893 -6.465,6.46 0,3.568 2.895,6.46 6.465,6.46 C -2.893,6.46 0,3.568 0,0 Z"
             style="fill:none;stroke:#231f20;stroke-width:1;stroke-linecap:butt;stroke-linejoin:miter;stroke-miterlimit:10;stroke-dasharray:none;stroke-opacity:1"
             id="path48" /></g><g
           id="g50"
           transform="translate(58.9353,93.6548)"><path
             d="m 0,0 41.417,14.39 c 0,0 34.11,-28.067 42.22,-28.067"
             style="fill:none;stroke:#1c75bc;stroke-width:1;stroke-linecap:round;stroke-linejoin:round;stroke-miterlimit:10;stroke-dasharray:none;stroke-opacity:1"
             id="path52" /></g><g
           id="g54"
           transform="translate(191.4436,93.7281)"><path
             d="m 0,0 c 0,0 3.293,0.083 3.877,-0.833 0.584,-0.916 0.75,-20.75 0,-21.5 -0.75,-0.75 -7.583,-0.667 -7.833,0 -0.25,0.667 -0.538,19.224 0,20.5 C -3.418,-0.557 0,0 0,0 Z"
             style="fill:none;stroke:#1c75bc;stroke-width:1;stroke-linecap:round;stroke-linejoin:round;stroke-miterlimit:10;stroke-dasharray:none;stroke-opacity:1"
             id="path56" /></g><g
           id="g58"
           transform="translate(70.0466,95.7037)"><path
             d="M 0,0 C -0.154,0.7 15.07,5.576 15.936,5.467 17.1,5.32 17.932,0.989 17.264,0.516 16.597,0.043 0.154,-0.7 0,0"
             style="fill:#58595b;fill-opacity:1;fill-rule:nonzero;stroke:none"
             id="path60" /></g><g
           id="g62"
           transform="translate(49.3879,94.3126)"><path
             d="M 0,0 9.256,-0.69"
             style="fill:none;stroke:#1c75bc;stroke-width:2;stroke-linecap:round;stroke-linejoin:round;stroke-miterlimit:10;stroke-dasharray:none;stroke-opacity:1"
             id="path64" /></g><g
           id="g66"
           transform="translate(53.4943,89.2286)"><path
             d="m 0,0 c 0,-2.949 -2.39,-5.339 -5.339,-5.339 -2.949,0 -5.339,2.39 -5.339,5.339 0,2.949 2.39,5.339 5.339,5.339 C -2.39,5.339 0,2.949 0,0 Z"
             style="fill:none;stroke:#1c75bc;stroke-width:2;stroke-linecap:butt;stroke-linejoin:miter;stroke-miterlimit:10;stroke-dasharray:none;stroke-opacity:1"
             id="path68" /></g><g
           id="g70"
           transform="translate(100.7507,106.4624)"><path
             d="m 0,0 c -0.339,-0.689 -1.438,-0.248 -1.605,0.502 -0.166,0.75 -1.917,14.687 -1.833,15.726 0.083,1.038 -0.021,3.2 3.126,3.205 2.291,0.003 2.957,-1.41 2.957,-3.205 0,-1.795 -1.724,-14.273 -1.724,-14.273"
             style="fill:none;stroke:#009444;stroke-width:1;stroke-linecap:butt;stroke-linejoin:miter;stroke-miterlimit:10;stroke-dasharray:none;stroke-opacity:1"
             id="path72" /></g><g
           id="g74"
           transform="translate(93.9724,109.9644)"><path
             d="m 0,0 c 0,-0.991 -0.804,-1.794 -1.795,-1.794 -0.991,0 -1.794,0.803 -1.794,1.794 0,0.991 0.803,1.795 1.794,1.795 C -0.804,1.795 0,0.991 0,0 Z"
             style="fill:none;stroke:#231f20;stroke-width:1;stroke-linecap:butt;stroke-linejoin:miter;stroke-miterlimit:10;stroke-dasharray:none;stroke-opacity:1"
             id="path76" /></g><g
           id="g78"
           transform="translate(93.9724,87.8556)"><path
             d="m 0,0 c 0,-0.991 -0.804,-1.795 -1.795,-1.795 -0.991,0 -1.794,0.804 -1.794,1.795 0,0.991 0.803,1.795 1.794,1.795 C -0.804,1.795 0,0.991 0,0 Z"
             style="fill:none;stroke:#231f20;stroke-width:1;stroke-linecap:butt;stroke-linejoin:miter;stroke-miterlimit:10;stroke-dasharray:none;stroke-opacity:1"
             id="path80" /></g><g
           id="g82"
           transform="translate(92.1774,108.17)"><path
             d="M 0,0 V -18.03"
             style="fill:none;stroke:#231f20;stroke-width:1;stroke-linecap:butt;stroke-linejoin:miter;stroke-miterlimit:10;stroke-dasharray:none;stroke-opacity:1"
             id="path84" /></g><g
           id="g86"
           transform="translate(41.2815,150.6528)"><path
             d="m 0,0 c -2.994,-7.241 -3.057,-14.088 -0.14,-15.294 2.917,-1.206 7.708,3.687 10.702,10.927 2.994,7.241 3.057,14.089 0.14,15.295 C 7.785,12.133 2.994,7.241 0,0 Z"
             style="fill:none;stroke:#231f20;stroke-width:2;stroke-linecap:round;stroke-linejoin:round;stroke-miterlimit:10;stroke-dasharray:none;stroke-opacity:1"
             id="path88" /></g><g
           id="g90"
           transform="translate(40.2214,134.6095)"><path
             d="m 0,0 c 0,0 -18.2,-40.283 -15.365,-54.715 2.957,-15.055 27.808,-6 39.024,-15.714 4.432,-3.838 4.667,-41.286 7.667,-44.953 3,-3.667 16,0 16,0"
             style="fill:none;stroke:#231f20;stroke-width:2;stroke-linecap:round;stroke-linejoin:round;stroke-miterlimit:10;stroke-dasharray:none;stroke-opacity:1"
             id="path92" /></g><g
           id="g94"
           transform="translate(81.8669,20.6544)"><path
             d="m 0,0 3.998,1.137 c 3.828,0.54 7.119,-0.353 7.351,-1.994 0.231,-1.64 -2.685,-3.408 -6.513,-3.948 0,0 -3.336,0 -4.461,0.43"
             style="fill:none;stroke:#231f20;stroke-width:1;stroke-linecap:round;stroke-linejoin:round;stroke-miterlimit:10;stroke-dasharray:none;stroke-opacity:1"
             id="path96" /></g><g
           id="g98"
           transform="translate(93.2155,19.7979)"><path
             d="m 0,0 c 0,0 109.416,25.196 114.012,31.98 4.597,6.784 11.293,72.707 11.293,72.707"
             style="fill:none;stroke:#231f20;stroke-width:1;stroke-linecap:round;stroke-linejoin:round;stroke-miterlimit:10;stroke-dasharray:none;stroke-opacity:1"
             id="path100" /></g><g
           id="g102"
           transform="translate(36.5197,125.8951)"><path
             d="m 0,0 c 0,0 6.382,-13.667 11.178,-16.667 4.796,-3 41.307,-4.508 41.307,-7.889 v -3.63"
             style="fill:none;stroke:#231f20;stroke-width:2;stroke-linecap:round;stroke-linejoin:round;stroke-miterlimit:10;stroke-dasharray:none;stroke-opacity:1"
             id="path104" /></g><g
           id="g106"
           transform="translate(21.5798,80.44)"><path
             d="m 0,0 c -0.118,-0.959 -0.991,-1.641 -1.95,-1.523 -0.959,0.117 -1.641,0.991 -1.524,1.95 0,0 0.179,6.783 0.366,8.555 0.186,1.772 1.74,8.566 1.74,8.566 0.117,0.959 0.991,1.641 1.951,1.523 0.958,-0.118 1.641,-0.991 1.522,-1.95 0,0 -1.615,-7.038 -1.755,-8.69 C 0.21,6.78 0,0 0,0"
             style="fill:#c49a6c;fill-opacity:1;fill-rule:nonzero;stroke:none"
             id="path108" /></g><g
           id="g110"
           transform="translate(20.2653,79.4693)"><path
             d="M 0,0 28.254,6.469"
             style="fill:none;stroke:#c49a6c;stroke-width:1;stroke-linecap:butt;stroke-linejoin:miter;stroke-miterlimit:10;stroke-dasharray:none;stroke-opacity:1"
             id="path112" /></g><g
           id="g114"
           transform="translate(48.0095,92.5621)"><path
             d="M 0,0 -25.847,6.553"
             style="fill:none;stroke:#c49a6c;stroke-width:1;stroke-linecap:butt;stroke-linejoin:miter;stroke-miterlimit:10;stroke-dasharray:none;stroke-opacity:1"
             id="path116" /></g><path
           d="M 204.391,51.778 H 8.01 V 62.65 h 196.381 z"
           style="fill:#939598;fill-opacity:1;fill-rule:nonzero;stroke:none"
           id="path118" /><path
           d="M 185.282,8.002 H 174.41 v 137.227 h 10.872 z"
           style="fill:#939598;fill-opacity:1;fill-rule:nonzero;stroke:none"
           id="path120" /><path
           d="M 52.561,8.002 H 41.698 v 43.776 h 10.863 z"
           style="fill:#939598;fill-opacity:1;fill-rule:nonzero;stroke:none"
           id="path122" /><path
           d="M 41.698,63.827 H 13.782 v 5.031 h 27.916 z"
           style="fill:#939598;fill-opacity:1;fill-rule:nonzero;stroke:none"
           id="path124" /></g></g></g></svg>
