<?xml version="1.0" encoding="UTF-8" standalone="no"?>
<!-- Created with Inkscape (http://www.inkscape.org/) -->

<svg
   version="1.1"
   id="svg2"
   xml:space="preserve"
   width="196.88933"
   height="175.11067"
   viewBox="0 0 196.88933 175.11067"
   sodipodi:docname="FBBS.svg"
   inkscape:version="1.1.2 (0a00cf5339, 2022-02-04)"
   xmlns:inkscape="http://www.inkscape.org/namespaces/inkscape"
   xmlns:sodipodi="http://sodipodi.sourceforge.net/DTD/sodipodi-0.dtd"
   xmlns="http://www.w3.org/2000/svg"
   xmlns:svg="http://www.w3.org/2000/svg"><defs
     id="defs6"><clipPath
       clipPathUnits="userSpaceOnUse"
       id="clipPath16"><path
         d="M 0,131.333 H 147.667 V 0 H 0 Z"
         id="path14" /></clipPath></defs><sodipodi:namedview
     id="namedview4"
     pagecolor="#ffffff"
     bordercolor="#666666"
     borderopacity="1.0"
     inkscape:pageshadow="2"
     inkscape:pageopacity="0.0"
     inkscape:pagecheckerboard="0"
     showgrid="false"
     inkscape:zoom="4.1516602"
     inkscape:cx="98.514807"
     inkscape:cy="87.434902"
     inkscape:window-width="1920"
     inkscape:window-height="1027"
     inkscape:window-x="0"
     inkscape:window-y="25"
     inkscape:window-maximized="1"
     inkscape:current-layer="g8" /><g
     id="g8"
     inkscape:groupmode="layer"
     inkscape:label="FBBS"
     transform="matrix(1.3333333,0,0,-1.3333333,0,175.11067)"><g
       id="g10"><g
         id="g12"
         clip-path="url(#clipPath16)"><g
           id="g18"
           transform="translate(47.3237,43.9567)"><path
             d="m 0,0 c 0,-1.841 -1.493,-3.334 -3.334,-3.334 -1.84,0 -3.333,1.493 -3.333,3.334 0,1.841 1.493,3.333 3.333,3.333 C -1.493,3.333 0,1.841 0,0 Z"
             style="fill:none;stroke:#231f20;stroke-width:1;stroke-linecap:butt;stroke-linejoin:miter;stroke-miterlimit:10;stroke-dasharray:none;stroke-opacity:1"
             id="path20" /></g><g
           id="g22"
           transform="translate(103.8413,46.4948)"><path
             d="m 0,0 c 0,-1.841 -1.494,-3.333 -3.336,-3.333 -1.841,0 -3.334,1.492 -3.334,3.333 0,1.841 1.493,3.334 3.334,3.334 C -1.494,3.334 0,1.841 0,0 Z"
             style="fill:none;stroke:#231f20;stroke-width:1;stroke-linecap:butt;stroke-linejoin:miter;stroke-miterlimit:10;stroke-dasharray:none;stroke-opacity:1"
             id="path24" /></g><g
           id="g26"
           transform="translate(132.8023,43.9577)"><path
             d="m 0,0 c 0,-1.841 -1.494,-3.333 -3.337,-3.333 -1.842,0 -3.336,1.492 -3.336,3.333 0,1.841 1.494,3.333 3.336,3.333 C -1.494,3.333 0,1.841 0,0"
             style="fill:#c49a6c;fill-opacity:1;fill-rule:nonzero;stroke:none"
             id="path28" /></g><g
           id="g30"
           transform="translate(55.7495,50.2936)"><path
             d="m 0,0 18.277,9.285 c 0,0 22.647,-17.848 26.481,-17.633 3.836,0.216 27.981,7.662 29.469,7.327"
             style="fill:none;stroke:#1c75bc;stroke-width:1;stroke-linecap:round;stroke-linejoin:round;stroke-miterlimit:10;stroke-dasharray:none;stroke-opacity:1"
             id="path32" /></g><g
           id="g34"
           transform="translate(75.8189,74.6257)"><path
             d="m 0,0 c 0,-0.991 -0.804,-1.794 -1.795,-1.794 -0.991,0 -1.794,0.803 -1.794,1.794 0,0.991 0.803,1.795 1.794,1.795 C -0.804,1.795 0,0.991 0,0 Z"
             style="fill:none;stroke:#231f20;stroke-width:1;stroke-linecap:butt;stroke-linejoin:miter;stroke-miterlimit:10;stroke-dasharray:none;stroke-opacity:1"
             id="path36" /></g><g
           id="g38"
           transform="translate(59.5366,51.0475)"><path
             d="M 0,0 C -0.177,0.695 14.885,6.054 15.753,5.973 16.921,5.863 17.891,1.56 17.239,1.066 16.587,0.572 0.176,-0.694 0,0"
             style="fill:#58595b;fill-opacity:1;fill-rule:nonzero;stroke:none"
             id="path40" /></g><g
           id="g42"
           transform="translate(74.3359,58.3981)"><path
             d="m 0,0 c -0.339,-0.689 -1.438,-0.248 -1.605,0.502 -0.166,0.75 -1.917,14.687 -1.833,15.726 0.083,1.038 -0.021,3.2 3.126,3.205 2.291,0.003 2.957,-1.41 2.957,-3.205 0,-1.795 -1.724,-14.273 -1.724,-14.273"
             style="fill:none;stroke:#009444;stroke-width:1;stroke-linecap:butt;stroke-linejoin:miter;stroke-miterlimit:10;stroke-dasharray:none;stroke-opacity:1"
             id="path44" /></g><g
           id="g46"
           transform="translate(43.9907,49.1931)"><path
             d="m 0,0 c -2.946,0 -5.333,-2.388 -5.333,-5.333 0,-2.946 2.387,-5.334 5.333,-5.334 0,0 82.628,0.099 85.576,0.099 2.948,0 5.338,2.387 5.338,5.333 0,2.945 -2.39,5.333 -5.338,5.333 L 57.35,1.767 Z"
             style="fill:none;stroke:#1c75bc;stroke-width:1;stroke-linecap:round;stroke-linejoin:round;stroke-miterlimit:10;stroke-dasharray:none;stroke-opacity:1"
             id="path48" /></g><g
           id="g50"
           transform="translate(55.4517,49.7316)"><path
             d="M 0,0 -9.818,-0.453"
             style="fill:none;stroke:#1c75bc;stroke-width:2;stroke-linecap:round;stroke-linejoin:round;stroke-miterlimit:10;stroke-dasharray:none;stroke-opacity:1"
             id="path52" /></g><g
           id="g54"
           transform="translate(37.2622,105.381)"><path
             d="m 0,0 c -2.994,-7.241 -3.057,-14.088 -0.14,-15.294 2.917,-1.206 7.708,3.687 10.702,10.927 2.994,7.242 3.057,14.089 0.14,15.295 C 7.785,12.133 2.994,7.241 0,0 Z"
             style="fill:none;stroke:#231f20;stroke-width:2;stroke-linecap:round;stroke-linejoin:round;stroke-miterlimit:10;stroke-dasharray:none;stroke-opacity:1"
             id="path56" /></g><g
           id="g58"
           transform="translate(36.2022,89.9201)"><path
             d="m 0,0 c 0,0 -18.2,-40.283 -15.365,-54.715 2.957,-15.055 22.54,-14.053 31.163,-12.969 8.623,1.084 27.151,13.09 30.983,13.59 3.833,0.499 32.762,-6.389 34.349,-6.114 4.335,0.75 5.892,2.571 7.394,5.071 1.501,2.5 -0.89,9.483 -0.89,9.483"
             style="fill:none;stroke:#231f20;stroke-width:2;stroke-linecap:round;stroke-linejoin:round;stroke-miterlimit:10;stroke-dasharray:none;stroke-opacity:1"
             id="path60" /></g><g
           id="g62"
           transform="translate(34.2808,83.9894)"><path
             d="m 0,0 c 0,0 7.574,-6.348 12.37,-9.348 4.795,-3 28.21,7.56 31.168,4.415 0.457,-0.486 1.208,-2.62 1.208,-2.62"
             style="fill:none;stroke:#231f20;stroke-width:2;stroke-linecap:round;stroke-linejoin:round;stroke-miterlimit:10;stroke-dasharray:none;stroke-opacity:1"
             id="path64" /></g><g
           id="g66"
           transform="translate(17.5606,35.1682)"><path
             d="m 0,0 c -0.118,-0.959 -0.991,-1.641 -1.95,-1.523 -0.959,0.117 -1.641,0.991 -1.524,1.95 0,0 0.179,6.783 0.366,8.555 0.186,1.772 1.74,8.566 1.74,8.566 0.117,0.959 0.991,1.641 1.951,1.523 0.958,-0.118 1.641,-0.991 1.522,-1.95 0,0 -1.615,-7.038 -1.755,-8.69 C 0.21,6.78 0,0 0,0"
             style="fill:#c49a6c;fill-opacity:1;fill-rule:nonzero;stroke:none"
             id="path68" /></g><g
           id="g70"
           transform="translate(16.2461,34.1975)"><path
             d="M 0,0 28.253,6.469"
             style="fill:none;stroke:#c49a6c;stroke-width:1;stroke-linecap:butt;stroke-linejoin:miter;stroke-miterlimit:10;stroke-dasharray:none;stroke-opacity:1"
             id="path72" /></g><g
           id="g74"
           transform="translate(43.9902,47.2902)"><path
             d="M 0,0 -25.847,6.553"
             style="fill:none;stroke:#c49a6c;stroke-width:1;stroke-linecap:butt;stroke-linejoin:miter;stroke-miterlimit:10;stroke-dasharray:none;stroke-opacity:1"
             id="path76" /></g></g></g></g></svg>
