<?xml version="1.0" encoding="UTF-8" standalone="no"?>
<!-- Created with Inkscape (http://www.inkscape.org/) -->

<svg
   version="1.1"
   id="svg2"
   xml:space="preserve"
   width="324.66666"
   height="277.33334"
   viewBox="0 0 324.66666 277.33334"
   sodipodi:docname="FCB.svg"
   inkscape:version="1.1.2 (0a00cf5339, 2022-02-04)"
   xmlns:inkscape="http://www.inkscape.org/namespaces/inkscape"
   xmlns:sodipodi="http://sodipodi.sourceforge.net/DTD/sodipodi-0.dtd"
   xmlns="http://www.w3.org/2000/svg"
   xmlns:svg="http://www.w3.org/2000/svg"><defs
     id="defs6"><clipPath
       clipPathUnits="userSpaceOnUse"
       id="clipPath18"><path
         d="M 0,208 H 243.5 V 0 H 0 Z"
         id="path16" /></clipPath></defs><sodipodi:namedview
     id="namedview4"
     pagecolor="#ffffff"
     bordercolor="#666666"
     borderopacity="1.0"
     inkscape:pageshadow="2"
     inkscape:pageopacity="0.0"
     inkscape:pagecheckerboard="0"
     showgrid="false"
     inkscape:zoom="2.6213941"
     inkscape:cx="162.50895"
     inkscape:cy="138.85741"
     inkscape:window-width="1920"
     inkscape:window-height="1027"
     inkscape:window-x="0"
     inkscape:window-y="25"
     inkscape:window-maximized="1"
     inkscape:current-layer="g8" /><g
     id="g8"
     inkscape:groupmode="layer"
     inkscape:label="FCB"
     transform="matrix(1.3333333,0,0,-1.3333333,0,277.33333)"><path
       d="m 67.697,80.077 h -3.422 v 4.562 h 3.422 z"
       style="fill:#939598;fill-opacity:1;fill-rule:nonzero;stroke:none"
       id="path10" /><g
       id="g12"><g
         id="g14"
         clip-path="url(#clipPath18)"><g
           id="g20"
           transform="translate(231.4676,103.9337)"><path
             d="m 0,0 c 1.497,-0.848 2.026,-2.746 1.179,-4.242 -0.845,-1.495 -2.745,-2.024 -4.242,-1.177 -1.498,0.848 -2.026,2.747 -1.182,4.24 C -3.397,0.318 -1.499,0.848 0,0"
             style="fill:#c49a6c;fill-opacity:1;fill-rule:nonzero;stroke:none"
             id="path22" /></g><g
           id="g24"
           transform="translate(72.0872,199.254)"><path
             d="M 0,0 C 1.496,-0.848 2.024,-2.746 1.178,-4.242 0.333,-5.737 -1.565,-6.266 -3.06,-5.419 -4.558,-4.571 -5.085,-2.672 -4.242,-1.179 -3.395,0.318 -1.498,0.848 0,0"
             style="fill:#c49a6c;fill-opacity:1;fill-rule:nonzero;stroke:none"
             id="path26" /></g><g
           id="g28"
           transform="translate(229.9354,97.2813)"><path
             d="m 0,0 c 0,0 3.845,0.419 3.845,4.041 0,5.55 -7.644,90.046 -13.053,90.296 -5.409,0.25 -150.134,9.712 -150.134,9.712"
             style="fill:none;stroke:#1c75bc;stroke-width:1;stroke-linecap:butt;stroke-linejoin:miter;stroke-miterlimit:10;stroke-dasharray:none;stroke-opacity:1"
             id="path30" /></g><g
           id="g32"
           transform="translate(83.9837,94.498)"><path
             d="M 0,0 -16.061,-1.23"
             style="fill:none;stroke:#1c75bc;stroke-width:2;stroke-linecap:round;stroke-linejoin:round;stroke-miterlimit:10;stroke-dasharray:none;stroke-opacity:1"
             id="path34" /></g><g
           id="g36"
           transform="translate(84.5042,95.0742)"><path
             d="M 0,0 48.419,10.848 145.431,2.207 38.503,-6.502 0,-1.087"
             style="fill:none;stroke:#1c75bc;stroke-width:1;stroke-linecap:round;stroke-linejoin:round;stroke-miterlimit:10;stroke-dasharray:none;stroke-opacity:1"
             id="path38" /></g><path
           d="m 133.777,114.177 h -1.75 v 6 h 1.75 z"
           style="fill:none;stroke:#231f20;stroke-width:1;stroke-linecap:round;stroke-linejoin:round;stroke-miterlimit:10;stroke-dasharray:none;stroke-opacity:1"
           id="path40" /><g
           id="g42"
           transform="translate(132.9446,121.3116)"><path
             d="M 0,0 C 1.969,0 1.921,0.005 1.913,-3.856 1.903,-8.321 1.445,-17.162 0,-17.162 c -1.445,0 -1.997,10.767 -2.001,13.131 C -2.006,-0.401 -2.386,0 0,0 Z"
             style="fill:none;stroke:#009444;stroke-width:0.84;stroke-linecap:round;stroke-linejoin:round;stroke-miterlimit:10;stroke-dasharray:none;stroke-opacity:1"
             id="path44" /></g><path
           d="m 133.777,97.667 h -1.75 v -6 h 1.75 z"
           style="fill:none;stroke:#231f20;stroke-width:1;stroke-linecap:round;stroke-linejoin:round;stroke-miterlimit:10;stroke-dasharray:none;stroke-opacity:1"
           id="path46" /><g
           id="g48"
           transform="translate(132.9446,90.5323)"><path
             d="M 0,0 C 1.969,0 1.921,-0.005 1.913,3.856 1.903,8.321 1.445,17.162 0,17.162 -1.445,17.162 -1.997,6.395 -2.001,4.031 -2.006,0.401 -2.386,0 0,0 Z"
             style="fill:none;stroke:#009444;stroke-width:0.84;stroke-linecap:round;stroke-linejoin:round;stroke-miterlimit:10;stroke-dasharray:none;stroke-opacity:1"
             id="path50" /></g><path
           d="m 123.814,96.998 h -1.75 v 6 h 1.75 z"
           style="fill:none;stroke:#231f20;stroke-width:1;stroke-linecap:round;stroke-linejoin:round;stroke-miterlimit:10;stroke-dasharray:none;stroke-opacity:1"
           id="path52" /><g
           id="g54"
           transform="translate(122.9813,104.1329)"><path
             d="M 0,0 C 1.969,0 1.921,0.005 1.913,-3.856 1.903,-8.321 1.445,-17.162 0,-17.162 c -1.445,0 -1.998,10.767 -2.001,13.131 C -2.006,-0.401 -2.386,0 0,0 Z"
             style="fill:none;stroke:#009444;stroke-width:0.84;stroke-linecap:round;stroke-linejoin:round;stroke-miterlimit:10;stroke-dasharray:none;stroke-opacity:1"
             id="path56" /></g><path
           d="m 123.814,80.488 h -1.75 v -6 h 1.75 z"
           style="fill:none;stroke:#231f20;stroke-width:1;stroke-linecap:round;stroke-linejoin:round;stroke-miterlimit:10;stroke-dasharray:none;stroke-opacity:1"
           id="path58" /><g
           id="g60"
           transform="translate(122.9813,73.3536)"><path
             d="M 0,0 C 1.969,0 1.921,-0.005 1.913,3.856 1.903,8.321 1.445,17.162 0,17.162 -1.445,17.162 -1.998,6.394 -2.001,4.031 -2.006,0.401 -2.386,0 0,0 Z"
             style="fill:none;stroke:#009444;stroke-width:0.84;stroke-linecap:round;stroke-linejoin:round;stroke-miterlimit:10;stroke-dasharray:none;stroke-opacity:1"
             id="path62" /></g><g
           id="g64"
           transform="translate(75.4485,195.0986)"><path
             d="m 0,0 c 0,-3.171 -2.173,-5.741 -4.854,-5.741 -2.681,0 -4.854,2.57 -4.854,5.741 0,3.17 2.173,5.74 4.854,5.74 C -2.172,5.74 0,3.01 0,0 Z"
             style="fill:none;stroke:#1c75bc;stroke-width:1.977;stroke-linecap:butt;stroke-linejoin:miter;stroke-miterlimit:10;stroke-dasharray:none;stroke-opacity:1"
             id="path66" /></g><g
           id="g68"
           transform="translate(69.4915,86.8945)"><path
             d="m 0,0 c 0,-1.245 -0.989,-2.255 -2.21,-2.255 h -2.78 c -1.22,0 -2.21,1.01 -2.21,2.255 v 2.32 c 0,1.245 0.99,2.255 2.21,2.255 h 2.78 C -0.989,4.575 0,3.565 0,2.32 Z"
             style="fill:none;stroke:#231f20;stroke-width:0.787;stroke-linecap:butt;stroke-linejoin:miter;stroke-miterlimit:10;stroke-dasharray:none;stroke-opacity:1"
             id="path70" /></g><g
           id="g72"
           transform="translate(71.4915,86.2501)"><path
             d="m 0,0 c 0,-1.937 -1.539,-3.508 -3.438,-3.508 h -4.325 c -1.898,0 -3.437,1.571 -3.437,3.508 v 3.609 c 0,1.938 1.539,3.508 3.437,3.508 h 4.325 C -1.539,7.117 0,5.547 0,3.609 Z"
             style="fill:none;stroke:#1c75bc;stroke-width:2;stroke-linecap:butt;stroke-linejoin:miter;stroke-miterlimit:10;stroke-dasharray:none;stroke-opacity:1"
             id="path74" /></g><g
           id="g76"
           transform="translate(135.6824,42.6563)"><path
             d="m 0,0 c 0.254,-0.491 0.062,-1.095 -0.431,-1.347 l -45.978,-23.751 c -0.49,-0.252 -1.094,-0.06 -1.347,0.43 -0.254,0.49 -0.062,1.094 0.429,1.347 L -1.349,0.43 C -0.857,0.683 -0.254,0.49 0,0"
             style="fill:#ffffff;fill-opacity:1;fill-rule:nonzero;stroke:none"
             id="path78" /></g><g
           id="g80"
           transform="translate(135.6824,42.6563)"><path
             d="m 0,0 c 0.254,-0.491 0.062,-1.095 -0.431,-1.347 l -45.978,-23.751 c -0.49,-0.252 -1.094,-0.06 -1.347,0.43 -0.254,0.49 -0.062,1.094 0.429,1.347 L -1.349,0.43 C -0.857,0.683 -0.254,0.49 0,0 Z"
             style="fill:none;stroke:#231f20;stroke-width:1;stroke-linecap:round;stroke-linejoin:round;stroke-miterlimit:10;stroke-dasharray:none;stroke-opacity:1"
             id="path82" /></g><g
           id="g84"
           transform="translate(128.9998,197.0499)"><path
             d="M 0,0 3.903,-76.873"
             style="fill:none;stroke:#231f20;stroke-width:1;stroke-linecap:round;stroke-linejoin:round;stroke-miterlimit:10;stroke-dasharray:none;stroke-opacity:1"
             id="path86" /></g><g
           id="g88"
           transform="translate(122.7005,197.0499)"><path
             d="M 0,0 0.239,-94.052"
             style="fill:none;stroke:#231f20;stroke-width:1;stroke-linecap:round;stroke-linejoin:round;stroke-miterlimit:10;stroke-dasharray:none;stroke-opacity:1"
             id="path90" /></g><g
           id="g92"
           transform="translate(122.9261,72.88)"><path
             d="M 0,0 0.014,-48.729"
             style="fill:none;stroke:#231f20;stroke-width:1;stroke-linecap:butt;stroke-linejoin:miter;stroke-miterlimit:10;stroke-dasharray:none;stroke-opacity:1"
             id="path94" /></g><g
           id="g96"
           transform="translate(132.889,91.6671)"><path
             d="M 0,0 V -49.174"
             style="fill:none;stroke:#231f20;stroke-width:1;stroke-linecap:butt;stroke-linejoin:miter;stroke-miterlimit:10;stroke-dasharray:none;stroke-opacity:1"
             id="path98" /></g><g
           id="g100"
           transform="translate(127.9529,23.2188)"><path
             d="m 0,0 c 0.037,-0.552 -0.38,-1.028 -0.931,-1.064 l -51.634,-3.458 c -0.551,-0.037 -1.028,0.379 -1.065,0.93 -0.037,0.552 0.38,1.029 0.931,1.065 L -1.064,0.931 C -0.514,0.968 -0.037,0.551 0,0"
             style="fill:#ffffff;fill-opacity:1;fill-rule:nonzero;stroke:none"
             id="path102" /></g><g
           id="g104"
           transform="translate(127.9529,23.2188)"><path
             d="m 0,0 c 0.037,-0.552 -0.38,-1.028 -0.931,-1.064 l -51.634,-3.458 c -0.551,-0.037 -1.028,0.379 -1.065,0.93 -0.037,0.552 0.38,1.029 0.931,1.065 L -1.064,0.931 C -0.514,0.968 -0.037,0.551 0,0 Z"
             style="fill:none;stroke:#231f20;stroke-width:1;stroke-linecap:round;stroke-linejoin:round;stroke-miterlimit:10;stroke-dasharray:none;stroke-opacity:1"
             id="path106" /></g><g
           id="g108"
           transform="translate(128.9998,197.0499)"><path
             d="m 0,0 c 0,-1.739 -1.41,-3.148 -3.15,-3.148 -1.739,0 -3.149,1.409 -3.149,3.148 0,1.738 1.41,3.149 3.149,3.149 C -1.41,3.149 0,1.738 0,0"
             style="fill:#ffffff;fill-opacity:1;fill-rule:nonzero;stroke:none"
             id="path110" /></g><g
           id="g112"
           transform="translate(128.9998,197.0499)"><path
             d="m 0,0 c 0,-1.739 -1.41,-3.148 -3.15,-3.148 -1.739,0 -3.149,1.409 -3.149,3.148 0,1.738 1.41,3.149 3.149,3.149 C -1.41,3.149 0,1.738 0,0 Z"
             style="fill:none;stroke:#231f20;stroke-width:1;stroke-linecap:butt;stroke-linejoin:miter;stroke-miterlimit:10;stroke-dasharray:none;stroke-opacity:1"
             id="path114" /></g><g
           id="g116"
           transform="translate(109.1585,197.0499)"><path
             d="m 0,0 c 0,-1.739 -1.41,-3.148 -3.15,-3.148 -1.739,0 -3.149,1.409 -3.149,3.148 0,1.738 1.41,3.149 3.149,3.149 C -1.41,3.149 0,1.738 0,0"
             style="fill:#ffffff;fill-opacity:1;fill-rule:nonzero;stroke:none"
             id="path118" /></g><g
           id="g120"
           transform="translate(109.1585,197.0499)"><path
             d="m 0,0 c 0,-1.739 -1.41,-3.148 -3.15,-3.148 -1.739,0 -3.149,1.409 -3.149,3.148 0,1.738 1.41,3.149 3.149,3.149 C -1.41,3.149 0,1.738 0,0 Z"
             style="fill:none;stroke:#231f20;stroke-width:1;stroke-linecap:butt;stroke-linejoin:miter;stroke-miterlimit:10;stroke-dasharray:none;stroke-opacity:1"
             id="path122" /></g><g
           id="g124"
           transform="translate(68.0042,173.8683)"><path
             d="m 0,0 c -2.021,2.884 -1.5,7.656 -1.5,11.249 0,1.831 0.314,4.128 -0.189,5.807 -0.614,2.046 -0.84,2.85 -0.849,5.194"
             style="fill:#ffffff;fill-opacity:1;fill-rule:nonzero;stroke:#1c75bc;stroke-width:1;stroke-linecap:butt;stroke-linejoin:miter;stroke-miterlimit:10;stroke-dasharray:none;stroke-opacity:1"
             id="path126" /></g><g
           id="g128"
           transform="translate(65.2542,195.3683)"><path
             d="M 0,0 C 0.33,-1.636 1.773,-2.023 2.25,-3.75 2.722,-5.459 2.905,-7.411 3,-9.25 3.207,-13.275 4.25,-16.486 4.25,-20.5"
             style="fill:none;stroke:#1c75bc;stroke-width:1;stroke-linecap:butt;stroke-linejoin:miter;stroke-miterlimit:10;stroke-dasharray:none;stroke-opacity:1"
             id="path130" /></g><g
           id="g132"
           transform="translate(65.2542,194.3683)"><path
             d="m 0,0 c 1.335,-3.579 4.803,-5.381 5,-9.5 0.098,-2.045 -0.109,-3.955 0.444,-5.807 0.45,-1.504 0.942,-4.298 1.806,-5.443"
             style="fill:none;stroke:#1c75bc;stroke-width:1;stroke-linecap:butt;stroke-linejoin:miter;stroke-miterlimit:10;stroke-dasharray:none;stroke-opacity:1"
             id="path134" /></g><g
           id="g136"
           transform="translate(106.9251,104.253)"><path
             d="m 0,0 c 0,-0.987 -0.801,-1.787 -1.788,-1.787 -0.987,0 -1.787,0.8 -1.787,1.787 v 6.031 c 0,0.987 0.8,1.787 1.787,1.787 C -0.801,7.818 0,7.018 0,6.031 Z"
             style="fill:#939598;fill-opacity:1;fill-rule:nonzero;stroke:none"
             id="path138" /></g><g
           id="g140"
           transform="translate(106.9251,80.8204)"><path
             d="m 0,0 c 0,-0.987 -0.801,-1.788 -1.788,-1.788 -0.987,0 -1.787,0.801 -1.787,1.788 v 6.03 c 0,0.988 0.8,1.788 1.787,1.788 C -0.801,7.818 0,7.018 0,6.03 Z"
             style="fill:#939598;fill-opacity:1;fill-rule:nonzero;stroke:none"
             id="path142" /></g><g
           id="g144"
           transform="translate(105.137,102.4659)"><path
             d="M 0,0 V -13.827"
             style="fill:none;stroke:#231f20;stroke-width:1;stroke-linecap:round;stroke-linejoin:round;stroke-miterlimit:10;stroke-dasharray:none;stroke-opacity:1"
             id="path146" /></g><g
           id="g148"
           transform="translate(106.0086,193.9014)"><path
             d="M 0,0 -0.872,-81.83"
             style="fill:none;stroke:#231f20;stroke-width:1;stroke-linecap:butt;stroke-linejoin:miter;stroke-miterlimit:10;stroke-dasharray:none;stroke-opacity:1"
             id="path150" /></g><g
           id="g152"
           transform="translate(60.0442,149.9942)"><path
             d="m 0,0 c -2.994,-7.247 -3.057,-14.101 -0.14,-15.307 2.917,-1.207 7.708,3.69 10.702,10.937 2.994,7.247 3.057,14.1 0.14,15.308 C 7.785,12.145 2.994,7.247 0,0 Z"
             style="fill:none;stroke:#231f20;stroke-width:2;stroke-linecap:round;stroke-linejoin:round;stroke-miterlimit:10;stroke-dasharray:none;stroke-opacity:1"
             id="path154" /></g><g
           id="g156"
           transform="translate(58.9842,133.9375)"><path
             d="m 0,0 c 0,0 -18.2,-40.317 -15.365,-54.763 2.957,-15.066 34.611,-6.005 45.827,-15.727 4.432,-3.841 22.494,-32.006 25.494,-35.674 4.04,-4.936 14.45,1.145 14.249,1.06"
             style="fill:none;stroke:#231f20;stroke-width:2;stroke-linecap:round;stroke-linejoin:round;stroke-miterlimit:10;stroke-dasharray:none;stroke-opacity:1"
             id="path158" /></g><g
           id="g160"
           transform="translate(55.2825,125.2159)"><path
             d="m 0,0 c 0,0 6.382,-13.68 11.178,-16.682 4.796,-3.003 41.711,7.58 41.711,4.197 v -3.633"
             style="fill:none;stroke:#231f20;stroke-width:2;stroke-linecap:round;stroke-linejoin:round;stroke-miterlimit:10;stroke-dasharray:none;stroke-opacity:1"
             id="path162" /></g><path
           d="M 225.623,51.037 H 12.004 v 10.878 h 213.619 z"
           style="fill:#939598;fill-opacity:1;fill-rule:nonzero;stroke:none"
           id="path164" /><path
           d="M 225.623,187.952 H 12.004 v 5.544 h 213.619 z"
           style="fill:#939598;fill-opacity:1;fill-rule:nonzero;stroke:none"
           id="path166" /><path
           d="M 226.19,7.262 H 215.318 V 193.369 H 226.19 Z"
           style="fill:#939598;fill-opacity:1;fill-rule:nonzero;stroke:none"
           id="path168" /><path
           d="M 22.597,7.262 H 11.734 v 186.107 h 10.863 z"
           style="fill:#939598;fill-opacity:1;fill-rule:nonzero;stroke:none"
           id="path170" /><path
           d="M 71.324,61.731 H 60.461 v 18.957 h 10.863 z"
           style="fill:#939598;fill-opacity:1;fill-rule:nonzero;stroke:none"
           id="path172" /><path
           d="M 60.461,63.094 H 32.546 v 5.035 h 27.915 z"
           style="fill:#939598;fill-opacity:1;fill-rule:nonzero;stroke:none"
           id="path174" /></g></g></g></svg>
