<?xml version="1.0" encoding="UTF-8" standalone="no"?>
<!-- Created with Inkscape (http://www.inkscape.org/) -->

<svg
   version="1.1"
   id="svg2"
   xml:space="preserve"
   width="282.444"
   height="238.444"
   viewBox="0 0 282.444 238.444"
   sodipodi:docname="FCBcant.svg"
   inkscape:version="1.1.2 (0a00cf5339, 2022-02-04)"
   xmlns:inkscape="http://www.inkscape.org/namespaces/inkscape"
   xmlns:sodipodi="http://sodipodi.sourceforge.net/DTD/sodipodi-0.dtd"
   xmlns="http://www.w3.org/2000/svg"
   xmlns:svg="http://www.w3.org/2000/svg"><defs
     id="defs6"><clipPath
       clipPathUnits="userSpaceOnUse"
       id="clipPath16"><path
         d="M 0,178.833 H 211.833 V 0 H 0 Z"
         id="path14" /></clipPath><clipPath
       clipPathUnits="userSpaceOnUse"
       id="clipPath154"><path
         d="M 41.2941,94.3298 H 52.1569 V 59.5368 H 41.2941 Z"
         id="path152" /></clipPath></defs><sodipodi:namedview
     id="namedview4"
     pagecolor="#ffffff"
     bordercolor="#666666"
     borderopacity="1.0"
     inkscape:pageshadow="2"
     inkscape:pageopacity="0.0"
     inkscape:pagecheckerboard="0"
     showgrid="false"
     inkscape:zoom="3.0489339"
     inkscape:cx="141.36089"
     inkscape:cy="119.05801"
     inkscape:window-width="1920"
     inkscape:window-height="1027"
     inkscape:window-x="0"
     inkscape:window-y="25"
     inkscape:window-maximized="1"
     inkscape:current-layer="g8" /><g
     id="g8"
     inkscape:groupmode="layer"
     inkscape:label="FCBcant"
     transform="matrix(1.3333333,0,0,-1.3333333,0,238.444)"><g
       id="g10"><g
         id="g12"
         clip-path="url(#clipPath16)"><g
           id="g18"
           transform="translate(50.9392,86.3239)"><path
             d="m 0,0 c 0,-1.843 -1.493,-3.337 -3.333,-3.337 -1.841,0 -3.334,1.494 -3.334,3.337 0,1.842 1.493,3.336 3.334,3.336 C -1.493,3.336 0,1.842 0,0 Z"
             style="fill:none;stroke:#231f20;stroke-width:1;stroke-linecap:butt;stroke-linejoin:miter;stroke-miterlimit:10;stroke-dasharray:none;stroke-opacity:1"
             id="path20" /></g><g
           id="g22"
           transform="translate(186.3634,93.0114)"><path
             d="m 0,0 c 1.497,-0.848 2.026,-2.746 1.179,-4.242 -0.845,-1.495 -2.745,-2.024 -4.242,-1.177 -1.498,0.848 -2.026,2.747 -1.182,4.24 C -3.397,0.318 -1.499,0.848 0,0"
             style="fill:#c49a6c;fill-opacity:1;fill-rule:nonzero;stroke:none"
             id="path24" /></g><g
           id="g26"
           transform="translate(206.4563,95.2243)"><path
             d="M 0,0 -42.471,-12.483 -43.25,-9.845 -0.777,2.639 Z"
             style="fill:#c49a6c;fill-opacity:1;fill-rule:nonzero;stroke:none"
             id="path28" /></g><g
           id="g30"
           transform="translate(179.8918,111.9225)"><path
             d="M 0,0 12.52,-42.464 9.879,-43.24 -2.641,-0.777 Z"
             style="fill:#c49a6c;fill-opacity:1;fill-rule:nonzero;stroke:none"
             id="path32" /></g><g
           id="g34"
           transform="translate(48.7565,91.527)"><path
             d="M 0,0 16.061,0.777"
             style="fill:none;stroke:#1c75bc;stroke-width:2;stroke-linecap:round;stroke-linejoin:round;stroke-miterlimit:10;stroke-dasharray:none;stroke-opacity:1"
             id="path36" /></g><g
           id="g38"
           transform="translate(187.3127,94.4587)"><path
             d="M 0,0 C 2.37,-1.341 3.207,-4.348 1.865,-6.715 0.528,-9.083 -2.479,-9.917 -4.849,-8.576 -7.22,-7.237 -8.055,-4.23 -6.717,-1.864 -5.378,0.505 -2.371,1.339 0,0 Z"
             style="fill:none;stroke:#1c75bc;stroke-width:2.269;stroke-linecap:butt;stroke-linejoin:miter;stroke-miterlimit:10;stroke-dasharray:none;stroke-opacity:1"
             id="path40" /></g><g
           id="g42"
           transform="translate(52.863,86.4391)"><path
             d="m 0,0 c 0,-2.951 -2.39,-5.344 -5.339,-5.344 -2.949,0 -5.339,2.393 -5.339,5.344 0,2.951 2.39,5.344 5.339,5.344 C -2.39,5.344 0,2.951 0,0 Z"
             style="fill:none;stroke:#1c75bc;stroke-width:2;stroke-linecap:butt;stroke-linejoin:miter;stroke-miterlimit:10;stroke-dasharray:none;stroke-opacity:1"
             id="path44" /></g><g
           id="g46"
           transform="translate(65.3376,92.8806)"><path
             d="M 0,0 48.419,10.848 119.331,2.207 38.503,-6.502 0,-1.087"
             style="fill:none;stroke:#1c75bc;stroke-width:1;stroke-linecap:round;stroke-linejoin:round;stroke-miterlimit:10;stroke-dasharray:none;stroke-opacity:1"
             id="path48" /></g><path
           d="m 114.611,111.983 h -1.75 v 6 h 1.75 z"
           style="fill:none;stroke:#231f20;stroke-width:1;stroke-linecap:round;stroke-linejoin:round;stroke-miterlimit:10;stroke-dasharray:none;stroke-opacity:1"
           id="path50" /><g
           id="g52"
           transform="translate(113.778,119.1179)"><path
             d="M 0,0 C 1.969,0 1.921,0.005 1.913,-3.857 1.903,-8.321 1.445,-17.162 0,-17.162 c -1.445,0 -1.997,10.767 -2.001,13.131 C -2.006,-0.401 -2.386,0 0,0 Z"
             style="fill:none;stroke:#009444;stroke-width:0.84;stroke-linecap:round;stroke-linejoin:round;stroke-miterlimit:10;stroke-dasharray:none;stroke-opacity:1"
             id="path54" /></g><path
           d="m 114.611,95.473 h -1.75 v -6 h 1.75 z"
           style="fill:none;stroke:#231f20;stroke-width:1;stroke-linecap:round;stroke-linejoin:round;stroke-miterlimit:10;stroke-dasharray:none;stroke-opacity:1"
           id="path56" /><g
           id="g58"
           transform="translate(113.778,88.3386)"><path
             d="M 0,0 C 1.969,0 1.921,-0.005 1.913,3.856 1.903,8.321 1.445,17.162 0,17.162 -1.445,17.162 -1.997,6.395 -2.001,4.031 -2.006,0.401 -2.386,0 0,0 Z"
             style="fill:none;stroke:#009444;stroke-width:0.84;stroke-linecap:round;stroke-linejoin:round;stroke-miterlimit:10;stroke-dasharray:none;stroke-opacity:1"
             id="path60" /></g><path
           d="m 104.648,94.804 h -1.75 v 6 h 1.75 z"
           style="fill:none;stroke:#231f20;stroke-width:1;stroke-linecap:round;stroke-linejoin:round;stroke-miterlimit:10;stroke-dasharray:none;stroke-opacity:1"
           id="path62" /><g
           id="g64"
           transform="translate(103.8147,101.9391)"><path
             d="M 0,0 C 1.969,0 1.921,0.005 1.913,-3.856 1.903,-8.321 1.445,-17.162 0,-17.162 c -1.445,0 -1.998,10.767 -2.001,13.131 C -2.006,-0.401 -2.386,0 0,0 Z"
             style="fill:none;stroke:#009444;stroke-width:0.84;stroke-linecap:round;stroke-linejoin:round;stroke-miterlimit:10;stroke-dasharray:none;stroke-opacity:1"
             id="path66" /></g><path
           d="m 104.648,78.295 h -1.75 v -6 h 1.75 z"
           style="fill:none;stroke:#231f20;stroke-width:1;stroke-linecap:round;stroke-linejoin:round;stroke-miterlimit:10;stroke-dasharray:none;stroke-opacity:1"
           id="path68" /><g
           id="g70"
           transform="translate(103.8147,71.1599)"><path
             d="M 0,0 C 1.969,0 1.921,-0.005 1.913,3.856 1.903,8.321 1.445,17.162 0,17.162 -1.445,17.162 -1.998,6.395 -2.001,4.031 -2.006,0.401 -2.386,0 0,0 Z"
             style="fill:none;stroke:#009444;stroke-width:0.84;stroke-linecap:round;stroke-linejoin:round;stroke-miterlimit:10;stroke-dasharray:none;stroke-opacity:1"
             id="path72" /></g><g
           id="g74"
           transform="translate(116.5158,40.4626)"><path
             d="m 0,0 c 0.254,-0.491 0.062,-1.095 -0.431,-1.347 l -45.978,-23.751 c -0.49,-0.253 -1.094,-0.06 -1.347,0.43 -0.254,0.49 -0.062,1.094 0.429,1.347 L -1.349,0.43 C -0.857,0.683 -0.254,0.49 0,0"
             style="fill:#ffffff;fill-opacity:1;fill-rule:nonzero;stroke:none"
             id="path76" /></g><g
           id="g78"
           transform="translate(116.5158,40.4626)"><path
             d="m 0,0 c 0.254,-0.491 0.062,-1.095 -0.431,-1.347 l -45.978,-23.751 c -0.49,-0.253 -1.094,-0.06 -1.347,0.43 -0.254,0.49 -0.062,1.094 0.429,1.347 L -1.349,0.43 C -0.857,0.683 -0.254,0.49 0,0 Z"
             style="fill:none;stroke:#231f20;stroke-width:1;stroke-linecap:round;stroke-linejoin:round;stroke-miterlimit:10;stroke-dasharray:none;stroke-opacity:1"
             id="path80" /></g><g
           id="g82"
           transform="translate(118.0422,172.4284)"><path
             d="m 0,0 -18.979,-13.18 -1.142,1.643 18.978,13.18 z"
             style="fill:#bcbec0;fill-opacity:1;fill-rule:nonzero;stroke:none"
             id="path84" /></g><g
           id="g86"
           transform="translate(117.3703,171.7087)"><path
             d="M 0,0 -3.634,-53.726"
             style="fill:none;stroke:#231f20;stroke-width:1;stroke-linecap:round;stroke-linejoin:round;stroke-miterlimit:10;stroke-dasharray:none;stroke-opacity:1"
             id="path88" /></g><g
           id="g90"
           transform="translate(99.6574,159.3786)"><path
             d="M 0,0 4.116,-58.574"
             style="fill:none;stroke:#231f20;stroke-width:1;stroke-linecap:round;stroke-linejoin:round;stroke-miterlimit:10;stroke-dasharray:none;stroke-opacity:1"
             id="path92" /></g><g
           id="g94"
           transform="translate(103.7595,70.6862)"><path
             d="M 0,0 0.014,-48.729"
             style="fill:none;stroke:#231f20;stroke-width:1;stroke-linecap:butt;stroke-linejoin:miter;stroke-miterlimit:10;stroke-dasharray:none;stroke-opacity:1"
             id="path96" /></g><g
           id="g98"
           transform="translate(113.7224,89.4733)"><path
             d="M 0,0 V -49.174"
             style="fill:none;stroke:#231f20;stroke-width:1;stroke-linecap:butt;stroke-linejoin:miter;stroke-miterlimit:10;stroke-dasharray:none;stroke-opacity:1"
             id="path100" /></g><g
           id="g102"
           transform="translate(108.7863,21.0251)"><path
             d="m 0,0 c 0.037,-0.552 -0.38,-1.028 -0.931,-1.064 l -51.634,-3.458 c -0.551,-0.038 -1.028,0.379 -1.065,0.93 -0.037,0.552 0.38,1.029 0.931,1.065 L -1.064,0.931 C -0.514,0.968 -0.037,0.551 0,0"
             style="fill:#ffffff;fill-opacity:1;fill-rule:nonzero;stroke:none"
             id="path104" /></g><g
           id="g106"
           transform="translate(108.7863,21.0251)"><path
             d="m 0,0 c 0.037,-0.552 -0.38,-1.028 -0.931,-1.064 l -51.634,-3.458 c -0.551,-0.038 -1.028,0.379 -1.065,0.93 -0.037,0.552 0.38,1.029 0.931,1.065 L -1.064,0.931 C -0.514,0.968 -0.037,0.551 0,0 Z"
             style="fill:none;stroke:#231f20;stroke-width:1;stroke-linecap:round;stroke-linejoin:round;stroke-miterlimit:10;stroke-dasharray:none;stroke-opacity:1"
             id="path108" /></g><g
           id="g110"
           transform="translate(112.8952,166.6589)"><path
             d="m 0,0 c 0,-2.585 -2.096,-4.68 -4.681,-4.68 -2.585,0 -4.68,2.095 -4.68,4.68 0,2.583 2.095,4.68 4.68,4.68 C -2.096,4.68 0,2.583 0,0"
             style="fill:#bcbec0;fill-opacity:1;fill-rule:nonzero;stroke:none"
             id="path112" /></g><g
           id="g114"
           transform="translate(87.7585,102.0593)"><path
             d="m 0,0 c 0,-0.987 -0.801,-1.787 -1.788,-1.787 -0.987,0 -1.787,0.8 -1.787,1.787 v 6.031 c 0,0.987 0.8,1.787 1.787,1.787 C -0.801,7.818 0,7.018 0,6.031 Z"
             style="fill:#939598;fill-opacity:1;fill-rule:nonzero;stroke:none"
             id="path116" /></g><g
           id="g118"
           transform="translate(87.7585,78.6266)"><path
             d="m 0,0 c 0,-0.987 -0.801,-1.788 -1.788,-1.788 -0.987,0 -1.787,0.801 -1.787,1.788 v 6.03 c 0,0.988 0.8,1.788 1.787,1.788 C -0.801,7.818 0,7.018 0,6.03 Z"
             style="fill:#939598;fill-opacity:1;fill-rule:nonzero;stroke:none"
             id="path120" /></g><g
           id="g122"
           transform="translate(85.9704,100.2722)"><path
             d="M 0,0 V -13.827"
             style="fill:none;stroke:#231f20;stroke-width:1;stroke-linecap:round;stroke-linejoin:round;stroke-miterlimit:10;stroke-dasharray:none;stroke-opacity:1"
             id="path124" /></g><g
           id="g126"
           transform="translate(85.9709,164.2975)"><path
             d="M 0,0 V -54.42"
             style="fill:none;stroke:#231f20;stroke-width:1;stroke-linecap:butt;stroke-linejoin:miter;stroke-miterlimit:10;stroke-dasharray:none;stroke-opacity:1"
             id="path128" /></g><g
           id="g130"
           transform="translate(40.8776,147.8005)"><path
             d="m 0,0 c -2.994,-7.247 -3.057,-14.101 -0.14,-15.307 2.917,-1.207 7.708,3.69 10.702,10.937 2.994,7.247 3.057,14.1 0.14,15.308 C 7.785,12.145 2.994,7.247 0,0 Z"
             style="fill:none;stroke:#231f20;stroke-width:2;stroke-linecap:round;stroke-linejoin:round;stroke-miterlimit:10;stroke-dasharray:none;stroke-opacity:1"
             id="path132" /></g><g
           id="g134"
           transform="translate(39.8176,131.7438)"><path
             d="m 0,0 c 0,0 -18.2,-40.317 -15.365,-54.763 2.957,-15.066 34.611,-6.005 45.827,-15.727 4.432,-3.841 22.494,-32.006 25.494,-35.674 4.04,-4.936 14.45,1.145 14.249,1.06"
             style="fill:none;stroke:#231f20;stroke-width:2;stroke-linecap:round;stroke-linejoin:round;stroke-miterlimit:10;stroke-dasharray:none;stroke-opacity:1"
             id="path136" /></g><g
           id="g138"
           transform="translate(36.1159,123.0222)"><path
             d="m 0,0 c 0,0 6.382,-13.68 11.178,-16.682 4.796,-3.003 41.711,7.579 41.711,4.197 v -3.633"
             style="fill:none;stroke:#231f20;stroke-width:2;stroke-linecap:round;stroke-linejoin:round;stroke-miterlimit:10;stroke-dasharray:none;stroke-opacity:1"
             id="path140" /></g><path
           d="M 189.687,48.843 H 7.606 v 10.878 h 182.081 z"
           style="fill:#939598;fill-opacity:1;fill-rule:nonzero;stroke:none"
           id="path142" /><path
           d="m 157.094,5.068 h -10.872 v 164.265 h 10.872 z"
           style="fill:#939598;fill-opacity:1;fill-rule:nonzero;stroke:none"
           id="path144" /><path
           d="M 52.157,5.068 H 41.294 v 43.775 h 10.863 z"
           style="fill:#939598;fill-opacity:1;fill-rule:nonzero;stroke:none"
           id="path146" /><g
           id="g148"><g
             id="g150" /><g
             id="g160"><g
               clip-path="url(#clipPath154)"
               opacity="0.800003"
               id="g158"><path
                 d="M 52.157,59.537 H 41.294 V 94.33 h 10.863 z"
                 style="fill:#939598;fill-opacity:1;fill-rule:nonzero;stroke:none"
                 id="path156" /></g></g></g><path
           d="M 41.294,60.9 H 13.379 v 5.035 h 27.915 z"
           style="fill:#939598;fill-opacity:1;fill-rule:nonzero;stroke:none"
           id="path162" /><path
           d="M 146.335,164.298 H 85.337 v 5.035 h 60.998 z"
           style="fill:#939598;fill-opacity:1;fill-rule:nonzero;stroke:none"
           id="path164" /><g
           id="g166"
           transform="translate(188.5715,91.2243)"><path
             d="M 0,0 1.234,0.006 1.07,-31.511 -9.04,-31.507 -8.875,0.011 -7.53,0.05 -7.564,-1.366 c 0.019,-1.738 1.83,-3.492 3.815,-3.471 1.986,0.022 3.795,1.716 3.774,3.452 z"
             style="fill:#939598;fill-opacity:1;fill-rule:nonzero;stroke:none"
             id="path168" /></g></g></g></g></svg>
