<?xml version="1.0" encoding="UTF-8" standalone="no"?>
<!-- Created with Inkscape (http://www.inkscape.org/) -->

<svg
   version="1.1"
   id="svg2"
   xml:space="preserve"
   width="251.33333"
   height="255.11067"
   viewBox="0 0 251.33333 255.11067"
   sodipodi:docname="FCBunique.svg"
   inkscape:version="1.1.2 (0a00cf5339, 2022-02-04)"
   xmlns:inkscape="http://www.inkscape.org/namespaces/inkscape"
   xmlns:sodipodi="http://sodipodi.sourceforge.net/DTD/sodipodi-0.dtd"
   xmlns="http://www.w3.org/2000/svg"
   xmlns:svg="http://www.w3.org/2000/svg"><defs
     id="defs6"><clipPath
       clipPathUnits="userSpaceOnUse"
       id="clipPath16"><path
         d="M 0,191.333 H 188.5 V 0 H 0 Z"
         id="path14" /></clipPath><clipPath
       clipPathUnits="userSpaceOnUse"
       id="clipPath120"><path
         d="m 111.575,147.404 h 38.688 v -13.107 h -38.688 z"
         id="path118" /></clipPath><clipPath
       clipPathUnits="userSpaceOnUse"
       id="clipPath136"><path
         d="M 40.8058,102.193 H 51.6682 V 64.5645 H 40.8058 Z"
         id="path134" /></clipPath></defs><sodipodi:namedview
     id="namedview4"
     pagecolor="#ffffff"
     bordercolor="#666666"
     borderopacity="1.0"
     inkscape:pageshadow="2"
     inkscape:pageopacity="0.0"
     inkscape:pagecheckerboard="0"
     showgrid="false"
     inkscape:zoom="2.8497436"
     inkscape:cx="125.62534"
     inkscape:cy="127.37988"
     inkscape:window-width="1920"
     inkscape:window-height="1027"
     inkscape:window-x="0"
     inkscape:window-y="25"
     inkscape:window-maximized="1"
     inkscape:current-layer="g8" /><g
     id="g8"
     inkscape:groupmode="layer"
     inkscape:label="FCBunique"
     transform="matrix(1.3333333,0,0,-1.3333333,0,255.11067)"><g
       id="g10"><g
         id="g12"
         clip-path="url(#clipPath16)"><g
           id="g18"
           transform="translate(142.3898,151.2735)"><path
             d="M 0,0 C 1.497,-0.848 2.026,-2.746 1.179,-4.242 0.334,-5.738 -1.566,-6.266 -3.063,-5.42 -4.562,-4.572 -5.089,-2.672 -4.245,-1.18 -3.398,0.318 -1.499,0.848 0,0"
             style="fill:#c49a6c;fill-opacity:1;fill-rule:nonzero;stroke:none"
             id="path20" /></g><g
           id="g22"
           transform="translate(49.5432,90.4229)"><path
             d="m 0,0 c 0,-1.843 -1.492,-3.337 -3.334,-3.337 -1.84,0 -3.333,1.494 -3.333,3.337 0,1.842 1.493,3.336 3.333,3.336 C -1.492,3.336 0,1.842 0,0 Z"
             style="fill:none;stroke:#231f20;stroke-width:1;stroke-linecap:butt;stroke-linejoin:miter;stroke-miterlimit:10;stroke-dasharray:none;stroke-opacity:1"
             id="path24" /></g><g
           id="g26"
           transform="translate(51.4669,90.5381)"><path
             d="m 0,0 c 0,-2.951 -2.391,-5.344 -5.339,-5.344 -2.948,0 -5.339,2.393 -5.339,5.344 0,2.951 2.391,5.344 5.339,5.344 C -2.391,5.344 0,2.951 0,0 Z"
             style="fill:none;stroke:#1c75bc;stroke-width:2;stroke-linecap:butt;stroke-linejoin:miter;stroke-miterlimit:10;stroke-dasharray:none;stroke-opacity:1"
             id="path28" /></g><g
           id="g30"
           transform="translate(44.4503,95.6095)"><path
             d="m 0,0 c 0,0 50.488,46.051 51.778,46.098 1.29,0.047 11.122,-11.569 12.644,-11.554 1.521,0.015 7.162,4.174 7.162,4.174 l 23.253,17.634"
             style="fill:none;stroke:#1c75bc;stroke-width:1;stroke-linecap:butt;stroke-linejoin:miter;stroke-miterlimit:10;stroke-dasharray:none;stroke-opacity:1"
             id="path32" /></g><g
           id="g34"
           transform="translate(128.5519,167.1974)"><path
             d="M 0,0 -32.746,16.574 -31.918,18.21 0.828,1.636 Z"
             style="fill:#939598;fill-opacity:1;fill-rule:nonzero;stroke:none"
             id="path36" /></g><g
           id="g38"
           transform="translate(168.0743,147.5195)"><path
             d="m 0,0 -32.746,16.574 0.828,1.637 L 0.828,1.637 Z"
             style="fill:#939598;fill-opacity:1;fill-rule:nonzero;stroke:none"
             id="path40" /></g><g
           id="g42"
           transform="translate(128.3781,85.5968)"><path
             d="M 0,0 -19.327,4.37 -18.922,6.159 0.404,1.788 Z"
             style="fill:#939598;fill-opacity:1;fill-rule:nonzero;stroke:none"
             id="path44" /></g><g
           id="g46"
           transform="translate(128.3781,84.9532)"><path
             d="m 0,0 -19.327,-4.369 0.405,-1.789 19.326,4.369 z"
             style="fill:#939598;fill-opacity:1;fill-rule:nonzero;stroke:none"
             id="path48" /></g><g
           id="g50"
           transform="translate(97.6877,156.8203)"><path
             d="m 0,0 c 0,-0.99 -0.805,-1.794 -1.795,-1.794 -0.991,0 -1.795,0.804 -1.795,1.794 0,0.992 0.804,1.795 1.795,1.795 C -0.805,1.795 0,0.992 0,0 Z"
             style="fill:none;stroke:#231f20;stroke-width:1;stroke-linecap:butt;stroke-linejoin:miter;stroke-miterlimit:10;stroke-dasharray:none;stroke-opacity:1"
             id="path52" /></g><g
           id="g54"
           transform="translate(96.3761,183.3878)"><path
             d="M 0,0 -0.483,-24.773"
             style="fill:none;stroke:#231f20;stroke-width:1;stroke-linecap:butt;stroke-linejoin:miter;stroke-miterlimit:10;stroke-dasharray:none;stroke-opacity:1"
             id="path56" /></g><g
           id="g58"
           transform="translate(96.2043,140.5937)"><path
             d="m 0,0 c -0.339,-0.689 -1.439,-0.248 -1.605,0.502 -0.166,0.75 -1.918,14.687 -1.834,15.725 0.084,1.039 -0.02,3.201 3.127,3.205 2.291,0.004 2.957,-1.411 2.957,-3.205 0,-1.795 -1.724,-14.272 -1.724,-14.272"
             style="fill:none;stroke:#009444;stroke-width:1;stroke-linecap:butt;stroke-linejoin:miter;stroke-miterlimit:10;stroke-dasharray:none;stroke-opacity:1"
             id="path60" /></g><g
           id="g62"
           transform="translate(45.67,96.6152)"><path
             d="m 0,0 c 0,0 61.161,39.15 63.12,39.15 2.229,0 6.498,-2.037 8.02,-0.85"
             style="fill:none;stroke:#1c75bc;stroke-width:1;stroke-linecap:butt;stroke-linejoin:miter;stroke-miterlimit:10;stroke-dasharray:none;stroke-opacity:1"
             id="path64" /></g><g
           id="g66"
           transform="translate(116.086,28.129)"><path
             d="m 0,0 c 0,0 18.222,21.223 21.796,30.473 3.574,9.25 29.796,89.031 29.796,89.031"
             style="fill:none;stroke:#231f20;stroke-width:1;stroke-linecap:butt;stroke-linejoin:miter;stroke-miterlimit:10;stroke-dasharray:none;stroke-opacity:1"
             id="path68" /></g><g
           id="g70"
           transform="translate(64.6291,111.0117)"><path
             d="M 0,0 C -0.456,0.555 10.893,11.813 11.714,12.109 12.817,12.507 15.525,9.025 15.146,8.301 14.766,7.577 0.454,-0.553 0,0"
             style="fill:#58595b;fill-opacity:1;fill-rule:nonzero;stroke:none"
             id="path72" /></g><g
           id="g74"
           transform="translate(109.799,41.7402)"><path
             d="M 0,0 0.054,37.055"
             style="fill:none;stroke:#231f20;stroke-width:1;stroke-linecap:round;stroke-linejoin:round;stroke-miterlimit:10;stroke-dasharray:none;stroke-opacity:1"
             id="path76" /></g><g
           id="g78"
           transform="translate(109.9025,91.5538)"><path
             d="M 0,0 -0.722,40.013"
             style="fill:none;stroke:#231f20;stroke-width:1;stroke-linecap:round;stroke-linejoin:round;stroke-miterlimit:10;stroke-dasharray:none;stroke-opacity:1"
             id="path80" /></g><g
           id="g82"
           transform="translate(111.8224,41.1992)"><path
             d="m 0,0 c 0.254,-0.492 0.062,-1.096 -0.431,-1.348 l -45.978,-23.75 c -0.49,-0.254 -1.094,-0.06 -1.348,0.43 -0.254,0.49 -0.061,1.094 0.43,1.346 L -1.349,0.43 C -0.857,0.682 -0.254,0.49 0,0"
             style="fill:#ffffff;fill-opacity:1;fill-rule:nonzero;stroke:none"
             id="path84" /></g><g
           id="g86"
           transform="translate(111.8224,41.1992)"><path
             d="m 0,0 c 0.254,-0.492 0.062,-1.096 -0.431,-1.348 l -45.978,-23.75 c -0.49,-0.254 -1.094,-0.06 -1.348,0.43 -0.254,0.49 -0.061,1.094 0.43,1.346 L -1.349,0.43 C -0.857,0.682 -0.254,0.49 0,0 Z"
             style="fill:none;stroke:#231f20;stroke-width:1;stroke-linecap:round;stroke-linejoin:round;stroke-miterlimit:10;stroke-dasharray:none;stroke-opacity:1"
             id="path88" /></g><g
           id="g90"
           transform="translate(115.8663,27.2188)"><path
             d="m 0,0 c 0.037,-0.551 -0.381,-1.027 -0.932,-1.064 l -51.634,-3.457 c -0.551,-0.038 -1.028,0.378 -1.065,0.929 -0.037,0.553 0.381,1.029 0.932,1.065 L -1.064,0.932 C -0.514,0.969 -0.037,0.551 0,0"
             style="fill:#ffffff;fill-opacity:1;fill-rule:nonzero;stroke:none"
             id="path92" /></g><g
           id="g94"
           transform="translate(115.8663,27.2188)"><path
             d="m 0,0 c 0.037,-0.551 -0.381,-1.027 -0.932,-1.064 l -51.634,-3.457 c -0.551,-0.038 -1.028,0.378 -1.065,0.929 -0.037,0.553 0.381,1.029 0.932,1.065 L -1.064,0.932 C -0.514,0.969 -0.037,0.551 0,0 Z"
             style="fill:none;stroke:#231f20;stroke-width:1;stroke-linecap:round;stroke-linejoin:round;stroke-miterlimit:10;stroke-dasharray:none;stroke-opacity:1"
             id="path96" /></g><g
           id="g98"
           transform="translate(84.5217,137.3398)"><path
             d="m 0,0 c 0.556,-0.82 0.34,-1.936 -0.48,-2.492 -0.821,-0.555 -1.938,-0.34 -2.493,0.48 -0.555,0.821 -0.34,1.938 0.481,2.492 C -1.671,1.036 -0.556,0.82 0,0 Z"
             style="fill:none;stroke:#231f20;stroke-width:1;stroke-linecap:butt;stroke-linejoin:miter;stroke-miterlimit:10;stroke-dasharray:none;stroke-opacity:1"
             id="path100" /></g><g
           id="g102"
           transform="translate(96.9151,119.0313)"><path
             d="m 0,0 c 0.556,-0.82 0.34,-1.936 -0.481,-2.492 -0.82,-0.556 -1.937,-0.341 -2.492,0.479 -0.556,0.822 -0.34,1.938 0.48,2.493 C -1.672,1.035 -0.556,0.82 0,0 Z"
             style="fill:none;stroke:#231f20;stroke-width:1;stroke-linecap:butt;stroke-linejoin:miter;stroke-miterlimit:10;stroke-dasharray:none;stroke-opacity:1"
             id="path104" /></g><g
           id="g106"
           transform="translate(84.0412,134.8477)"><path
             d="M 0,0 10.106,-14.932"
             style="fill:none;stroke:#231f20;stroke-width:1;stroke-linecap:butt;stroke-linejoin:miter;stroke-miterlimit:10;stroke-dasharray:none;stroke-opacity:1"
             id="path108" /></g><g
           id="g110"
           transform="translate(116.8098,137.3174)"><path
             d="M 0,0 C 0,-0.828 -0.672,-1.5 -1.5,-1.5 -2.328,-1.5 -3,-0.828 -3,0 -3,0.828 -2.328,1.5 -1.5,1.5 -0.672,1.5 0,0.828 0,0 Z"
             style="fill:none;stroke:#231f20;stroke-width:1;stroke-linecap:butt;stroke-linejoin:miter;stroke-miterlimit:10;stroke-dasharray:none;stroke-opacity:1"
             id="path112" /></g><g
           id="g114"><g
             id="g116" /><g
             id="g128"><g
               clip-path="url(#clipPath120)"
               opacity="0.800003"
               id="g126"><g
                 transform="translate(150.2628,142.5255)"
                 id="g124"><path
                   d="m 0,0 -36.757,-8.229 c 0,0 -1.467,0.354 -1.831,1.98 -0.446,1.993 0.74,2.899 0.74,2.899 l 36.755,8.229 z"
                   style="fill:#939598;fill-opacity:1;fill-rule:nonzero;stroke:none"
                   id="path122" /></g></g></g></g><g
           id="g130"><g
             id="g132" /><g
             id="g144"><g
               clip-path="url(#clipPath136)"
               opacity="0.800003"
               id="g142"><g
                 transform="translate(51.6682,99.3575)"
                 id="g140"><path
                   d="M 0,0 V -34.793 H -10.862 V 0 c 0,0 0.816,2.922 5.316,2.834 C -1.046,2.746 0,0 0,0"
                   style="fill:#939598;fill-opacity:1;fill-rule:nonzero;stroke:none"
                   id="path138" /></g></g></g></g><g
           id="g146"
           transform="translate(135.8048,170.42)"><path
             d="M 0,0 12.52,-42.464 9.879,-43.24 -2.641,-0.777 Z"
             style="fill:#c49a6c;fill-opacity:1;fill-rule:nonzero;stroke:none"
             id="path148" /></g><g
           id="g150"
           transform="translate(40.3889,153.1465)"><path
             d="m 0,0 c -2.993,-7.246 -3.057,-14.1 -0.14,-15.307 2.916,-1.207 7.708,3.69 10.701,10.938 2.995,7.246 3.057,14.099 0.141,15.307 C 7.785,12.145 2.993,7.248 0,0 Z"
             style="fill:none;stroke:#231f20;stroke-width:2;stroke-linecap:round;stroke-linejoin:round;stroke-miterlimit:10;stroke-dasharray:none;stroke-opacity:1"
             id="path152" /></g><g
           id="g154"
           transform="translate(39.3293,137.0898)"><path
             d="m 0,0 c 0,0 -18.201,-40.316 -15.365,-54.762 2.957,-15.066 34.611,-6.005 45.826,-15.728 4.433,-3.84 15.266,-32.614 18.266,-36.282 4.04,-4.933 14.451,1.145 14.249,1.06"
             style="fill:none;stroke:#231f20;stroke-width:2;stroke-linecap:round;stroke-linejoin:round;stroke-miterlimit:10;stroke-dasharray:none;stroke-opacity:1"
             id="path156" /></g><g
           id="g158"
           transform="translate(35.6272,128.3692)"><path
             d="m 0,0 c 0,0 6.382,-13.68 11.178,-16.682 4.796,-3.004 30.025,-3.375 30.025,-6.757 v -3.633"
             style="fill:none;stroke:#231f20;stroke-width:2;stroke-linecap:round;stroke-linejoin:round;stroke-miterlimit:10;stroke-dasharray:none;stroke-opacity:1"
             id="path160" /></g><path
           d="M 178.986,54.189 H 6.55 v 10.879 h 172.436 z"
           style="fill:#939598;fill-opacity:1;fill-rule:nonzero;stroke:none"
           id="path162" /><path
           d="M 137.882,10.43 H 127.01 v 164.25 h 10.872 z"
           style="fill:#939598;fill-opacity:1;fill-rule:nonzero;stroke:none"
           id="path164" /><path
           d="M 51.668,10.43 H 40.806 v 43.76 h 10.862 z"
           style="fill:#939598;fill-opacity:1;fill-rule:nonzero;stroke:none"
           id="path166" /><path
           d="M 40.806,66.246 H 12.89 v 5.035 h 27.916 z"
           style="fill:#939598;fill-opacity:1;fill-rule:nonzero;stroke:none"
           id="path168" /><g
           id="g170"
           transform="translate(135.3282,84.9376)"><path
             d="m 0,0 c 0,-1.656 -1.343,-3 -3,-3 -1.657,0 -3,1.344 -3,3 0,1.656 1.343,3 3,3 1.657,0 3,-1.344 3,-3 z"
             style="fill:none;stroke:#231f20;stroke-width:1;stroke-linecap:butt;stroke-linejoin:miter;stroke-miterlimit:10;stroke-dasharray:2, 1;stroke-dashoffset:0;stroke-opacity:1"
             id="path172" /></g><g
           id="g174"
           transform="translate(135.3282,166.5703)"><path
             d="m 0,0 c 0,-1.656 -1.343,-3 -3,-3 -1.657,0 -3,1.344 -3,3 0,1.656 1.343,3 3,3 1.657,0 3,-1.344 3,-3 z"
             style="fill:none;stroke:#231f20;stroke-width:1;stroke-linecap:butt;stroke-linejoin:miter;stroke-miterlimit:10;stroke-dasharray:2, 1;stroke-dashoffset:0;stroke-opacity:1"
             id="path176" /></g><g
           id="g178"
           transform="translate(110.6808,133.0665)"><path
             d="M 0,0 C 0,-0.828 -0.672,-1.5 -1.5,-1.5 -2.328,-1.5 -3,-0.828 -3,0 -3,0.828 -2.328,1.5 -1.5,1.5 -0.672,1.5 0,0.828 0,0 Z"
             style="fill:none;stroke:#231f20;stroke-width:1;stroke-linecap:butt;stroke-linejoin:miter;stroke-miterlimit:10;stroke-dasharray:none;stroke-opacity:1"
             id="path180" /></g></g></g></g></svg>
